<svg width="135" height="40" viewBox="0 0 135 40" fill="none" xmlns="http://www.w3.org/2000/svg">
<rect width="135" height="40" rx="5" fill="black"/>
<path d="M31.2172 19.8816C31.2302 18.9734 31.4719 18.0832 31.9197 17.2937C32.3675 16.5043 33.0069 15.8413 33.7786 15.3663C33.2871 14.6638 32.6392 14.086 31.8862 13.6788C31.1332 13.2717 30.296 13.0463 29.441 13.0206C27.6158 12.8291 25.8468 14.1131 24.9161 14.1131C23.9683 14.1131 22.5366 13.0396 20.9945 13.0714C19.9973 13.1034 19.0253 13.3935 18.1727 13.9135C17.3214 14.4329 16.6188 15.1648 16.1333 16.0377C14.0314 19.6783 15.5996 25.0303 17.6129 27.973C18.6195 29.414 19.7971 31.0247 21.3382 30.9675C22.845 30.904 23.4084 30.0057 25.2281 30.0057C27.0307 30.0057 27.5598 30.9675 29.1307 30.9312C30.7497 30.904 31.768 29.483 32.7394 28.0284C33.4631 27.0019 34.0202 25.8669 34.39 24.6655C33.4506 24.2682 32.6485 23.6023 32.0837 22.7508C31.5199 21.9008 31.2185 20.9027 31.2172 19.8816ZM28.2489 11.085C29.1308 10.0268 29.5657 8.66471 29.4609 7.28931C28.114 7.43043 26.8694 8.07472 25.9743 9.09417C25.5375 9.59137 25.2029 10.1702 24.9895 10.7974C24.7761 11.4246 24.6881 12.0879 24.7307 12.7493C25.4043 12.7561 26.0707 12.61 26.68 12.3218C27.2893 12.0336 27.8256 11.6108 28.2489 11.085V11.085ZM49.3039 27.4631H44.3567L43.1692 30.973H41.0737L45.7586 17.9878H47.9364L52.6223 30.973H50.4923L49.3048 27.4631H49.3039ZM44.8695 25.8433H48.7911L46.8575 20.1475H46.8032L44.8695 25.8433ZM62.7428 26.2408C62.7428 29.1817 61.1691 31.0719 58.7941 31.0719C58.193 31.1031 57.5954 30.9644 57.069 30.6717C56.5426 30.3789 56.1088 29.9438 55.8167 29.4159H55.7715V34.1054H53.8288V21.5059H55.71V23.0802H55.7452C56.0496 22.5541 56.4906 22.1206 57.0211 21.8259C57.5516 21.5312 58.1518 21.3865 58.7579 21.407C61.1591 21.407 62.7428 23.3062 62.7428 26.2399V26.2408ZM60.7458 26.2408C60.7458 24.3234 59.7564 23.063 58.2451 23.063C56.7618 23.063 55.7633 24.3497 55.7633 26.2399C55.7633 28.1473 56.7618 29.4249 58.2451 29.4249C59.7555 29.4249 60.7458 28.1745 60.7458 26.2399V26.2408ZM73.1572 26.2408C73.1572 29.1817 71.5835 31.0719 69.2085 31.0719C68.6075 31.1031 68.0098 30.9644 67.4835 30.6717C66.9571 30.3789 66.5232 29.9438 66.2311 29.4159H66.1859V34.1054H64.2441V21.5059H66.1235V23.0802H66.1597C66.4641 22.5541 66.905 22.1206 67.4355 21.8259C67.9661 21.5312 68.5663 21.3865 69.1723 21.407C71.5745 21.407 73.1572 23.3062 73.1572 26.2399V26.2408ZM71.1612 26.2408C71.1612 24.3234 70.1708 23.063 68.6604 23.063C67.1763 23.063 66.1778 24.3497 66.1778 26.2399C66.1778 28.1473 67.1763 29.4249 68.6604 29.4249C70.1708 29.4249 71.1612 28.1745 71.1612 26.2399V26.2408ZM80.0399 27.3551C80.1846 28.6436 81.4345 29.4875 83.143 29.4875C84.78 29.4875 85.9585 28.6436 85.9585 27.4821C85.9585 26.474 85.2476 25.8706 83.5663 25.4568L81.884 25.0512C79.5009 24.4759 78.3938 23.3606 78.3938 21.5503C78.3938 19.3099 80.3456 17.7709 83.1149 17.7709C85.859 17.7709 87.7393 19.3099 87.8026 21.5503H85.8418C85.7242 20.2545 84.6534 19.4723 83.0887 19.4723C81.5241 19.4723 80.4541 20.2636 80.4541 21.416C80.4541 22.3343 81.1379 22.8743 82.8102 23.288L84.24 23.6392C86.9036 24.269 88.0088 25.3388 88.0088 27.2389C88.0088 29.6681 86.0751 31.1899 82.9992 31.1899C80.1213 31.1899 78.1777 29.7035 78.052 27.3551H80.0399V27.3551ZM92.2026 19.2654V21.5059H94.0024V23.0448H92.2026V28.2643C92.2026 29.0747 92.5626 29.4531 93.3539 29.4531C93.5674 29.4485 93.7808 29.434 93.9925 29.4077V30.9376C93.6371 31.004 93.2758 31.0341 92.9144 31.0274C90.9979 31.0274 90.2509 30.3069 90.2509 28.4712V23.0448H88.8761V21.5059H90.2518V19.2645H92.2035L92.2026 19.2654ZM95.0434 26.2408C95.0434 23.2608 96.7962 21.3897 99.5312 21.3897C102.274 21.3897 104.02 23.2617 104.02 26.2399C104.02 29.2271 102.283 31.0909 99.5312 31.0909C96.779 31.0909 95.0434 29.2271 95.0434 26.2399V26.2408ZM102.041 26.2408C102.041 24.1964 101.105 22.9904 99.5312 22.9904C97.9575 22.9904 97.0214 24.2063 97.0214 26.2399C97.0214 28.2916 97.9575 29.4884 99.5312 29.4884C101.105 29.4884 102.041 28.2916 102.041 26.2399V26.2408ZM105.622 21.5059H107.474V23.1174H107.518C107.644 22.6133 107.939 22.168 108.353 21.8565C108.768 21.5449 109.277 21.3862 109.795 21.407C110.019 21.406 110.241 21.4305 110.46 21.4795V23.2971C110.178 23.2105 109.883 23.1707 109.587 23.1791C109.305 23.1678 109.024 23.2177 108.763 23.3252C108.502 23.4328 108.267 23.5956 108.074 23.8025C107.882 24.0093 107.737 24.2554 107.649 24.524C107.561 24.7925 107.531 25.077 107.563 25.3579V30.973H105.621L105.622 21.5059V21.5059ZM119.416 28.1917C119.154 29.9113 117.481 31.0909 115.341 31.0909C112.588 31.0909 110.88 29.2453 110.88 26.2852C110.88 23.3153 112.597 21.3897 115.259 21.3897C117.877 21.3897 119.523 23.1891 119.523 26.0593V26.7253H112.841V26.8433C112.81 27.1922 112.854 27.5437 112.969 27.8744C113.084 28.205 113.268 28.5072 113.509 28.7608C113.75 29.0145 114.042 29.2137 114.366 29.3453C114.689 29.4768 115.037 29.5377 115.386 29.5238C115.844 29.5676 116.305 29.4617 116.699 29.2219C117.093 28.982 117.399 28.6211 117.572 28.1926H119.416V28.1917ZM112.85 25.3669H117.581C117.607 24.8943 117.486 24.4252 117.233 24.0251C116.981 23.625 116.611 23.3137 116.174 23.1347C115.884 23.0153 115.573 22.9572 115.259 22.9641C114.943 22.9624 114.63 23.0232 114.337 23.1431C114.045 23.263 113.779 23.4396 113.554 23.6628C113.33 23.8861 113.153 24.1517 113.032 24.4441C112.911 24.7366 112.849 25.0503 112.85 25.3669V25.3669ZM43.4903 10.8509H44.3242C44.4675 10.8687 44.6129 10.8566 44.7513 10.8154C44.8897 10.7741 45.0181 10.7046 45.1285 10.6113C45.2389 10.5179 45.3289 10.4026 45.3928 10.2727C45.4567 10.1428 45.4932 10.0011 45.4999 9.8564C45.4999 9.2811 45.0667 8.90996 44.3332 8.90996C44.1119 8.87924 43.8865 8.91593 43.6862 9.01527C43.4859 9.11462 43.32 9.27203 43.2099 9.46712C43.1376 9.59688 43.0914 9.73934 43.0743 9.88725H42.159C42.1747 9.619 42.2454 9.35689 42.3668 9.11736C42.4882 8.87782 42.6576 8.66604 42.8644 8.49527C43.0714 8.32397 43.3111 8.19716 43.5689 8.1227C43.8267 8.04824 44.097 8.02773 44.3631 8.06243C45.5904 8.06243 46.455 8.75025 46.455 9.74025C46.4579 10.0724 46.3469 10.3954 46.1405 10.6552C45.9342 10.9149 45.6451 11.0955 45.3218 11.1667V11.2402C45.7061 11.2584 46.067 11.4253 46.3266 11.7084C46.587 11.9916 46.7245 12.3654 46.7091 12.7493C46.6666 13.1655 46.5 13.5593 46.231 13.8792C45.9621 14.199 45.6033 14.4301 45.2015 14.5423C44.9345 14.6173 44.6554 14.6383 44.3802 14.604C43.9653 14.6602 43.5431 14.5894 43.1689 14.401C42.7947 14.2125 42.4859 13.9152 42.2829 13.5478C42.1491 13.3039 42.0657 13.0353 42.0378 12.7583H42.9675C43.0236 13.3545 43.5717 13.7402 44.3802 13.7402C45.1879 13.7402 45.7161 13.3073 45.7161 12.6975C45.7161 12.0796 45.2186 11.6994 44.3504 11.6994H43.4903V10.8518V10.8509ZM47.7655 13.1213C47.7655 12.2738 48.3968 11.7856 49.5156 11.7157L50.7908 11.6431V11.2357C50.7908 10.7384 50.4634 10.458 49.8267 10.458C49.3085 10.458 48.9503 10.6486 48.8463 10.9816H47.9473C48.0423 10.1722 48.8038 9.65404 49.871 9.65404C51.0504 9.65404 51.716 10.2411 51.716 11.2357V14.4534H50.8207V13.791H50.7483C50.5989 14.0289 50.3892 14.2227 50.1407 14.3526C49.8922 14.4825 49.6137 14.5439 49.3338 14.5305C49.0365 14.5613 48.7371 14.4975 48.4779 14.3482C48.2187 14.1988 48.0128 13.9715 47.8894 13.6984C47.808 13.5169 47.7664 13.32 47.7655 13.1213V13.1213ZM50.7908 12.7193V12.3255L49.6413 12.399C48.9928 12.4425 48.6989 12.6631 48.6989 13.0777C48.6989 13.5015 49.067 13.7492 49.5716 13.7492C49.7945 13.7716 50.0188 13.7259 50.2154 13.6183C50.4119 13.5106 50.5715 13.3459 50.6732 13.1458C50.7406 13.013 50.7806 12.868 50.7908 12.7193V12.7193ZM54.1824 10.527V14.4534H53.2527V9.74388H56.3512V10.527H54.1824V10.527ZM61.9803 12.0968C61.9803 13.5932 61.2242 14.5305 60.0358 14.5305C59.7446 14.5503 59.4538 14.4864 59.1974 14.3465C58.9409 14.2065 58.7295 13.9962 58.5879 13.7402H58.5146V16.0178H57.5857V9.74479H58.4793V10.5224H58.549C58.6927 10.2569 58.9068 10.0365 59.1676 9.88546C59.4284 9.73445 59.7258 9.65875 60.0268 9.66675C61.2243 9.66675 61.9803 10.6005 61.9803 12.0968V12.0968ZM61.0253 12.0968C61.0253 11.1023 60.555 10.5016 59.7681 10.5016C58.9858 10.5016 58.4974 11.115 58.4974 12.1005C58.4974 13.0823 58.9858 13.6966 59.7636 13.6966C60.555 13.6966 61.0253 13.0959 61.0253 12.0968V12.0968ZM63.2176 16.1394V15.3399C63.318 15.3526 63.4193 15.3581 63.5206 15.3572C63.7181 15.3716 63.9139 15.3125 64.0709 15.1914C64.2278 15.0702 64.3349 14.8954 64.3716 14.7002L64.4413 14.4706L62.7383 9.74388H63.7494L64.9288 13.4834H65.0029L66.1787 9.74388H67.1636L65.409 14.6467C65.0066 15.7927 64.5616 16.1602 63.602 16.1602C63.5251 16.1602 63.3035 16.1512 63.2176 16.1385V16.1394ZM67.8871 13.1168H68.8115C68.9019 13.5324 69.2908 13.7483 69.8353 13.7483C70.4539 13.7483 70.8338 13.4761 70.8338 13.0523C70.8338 12.5986 70.4928 12.3808 69.8353 12.3808H69.1307V11.6594H69.8235C70.3843 11.6594 70.6701 11.4435 70.6701 11.0506C70.6701 10.7039 70.3942 10.4408 69.8235 10.4408C69.3035 10.4408 68.9236 10.6613 68.8639 11.0324H67.9685C68.0373 10.6053 68.2696 10.2221 68.616 9.96444C68.9623 9.70677 69.3953 9.59507 69.8226 9.65314C70.9414 9.65314 71.5817 10.1595 71.5817 10.9553C71.5871 11.1772 71.5161 11.3941 71.3807 11.5697C71.2453 11.7452 71.0537 11.8685 70.8383 11.919V11.9925C71.0945 12.0255 71.3297 12.1516 71.4996 12.3469C71.6694 12.5422 71.762 12.7932 71.7599 13.0523C71.7599 13.9471 70.9984 14.5396 69.8353 14.5396C68.8079 14.5396 67.9722 14.0677 67.8871 13.1168V13.1168ZM73.0975 14.4534V9.74388H74.0173V12.9834H74.0915L76.2603 9.74388H77.181V14.4534H76.2594V11.1976H76.1898L74.0173 14.4534H73.0966H73.0975ZM82.2521 10.527H80.7707V14.4534H79.8409V10.527H78.3577V9.74388H82.2521V10.5261V10.527ZM87.2563 13.1821C87.1295 13.6132 86.8556 13.9858 86.4826 14.2346C86.1096 14.4834 85.6612 14.5927 85.2159 14.5432C84.7492 14.5554 84.2914 14.4142 83.9121 14.1411C83.5328 13.868 83.2528 13.478 83.1149 13.0306C83.0244 12.734 82.9994 12.4213 83.0417 12.1141C83.0003 11.8055 83.0257 11.4915 83.1162 11.1937C83.2068 10.8958 83.3603 10.6211 83.5663 10.3881C83.7722 10.1545 84.0257 9.968 84.3097 9.8412C84.5937 9.71439 84.9015 9.65026 85.2123 9.65314C86.521 9.65314 87.3124 10.5488 87.3124 12.0269V12.3518H83.9886V12.4035C83.966 12.6643 84.0263 12.9256 84.1609 13.1499C84.2954 13.3742 84.4972 13.55 84.7375 13.6521C84.8967 13.7202 85.0685 13.7547 85.2421 13.752C85.4639 13.7784 85.6885 13.7384 85.8876 13.637C86.0867 13.5356 86.2514 13.3773 86.3609 13.1821H87.2563ZM83.9886 11.664H86.3645C86.3765 11.5057 86.3552 11.3466 86.302 11.1971C86.2489 11.0476 86.165 10.911 86.0559 10.796C85.9468 10.6811 85.8148 10.5904 85.6686 10.5298C85.5223 10.4692 85.365 10.4401 85.2069 10.4444C84.9652 10.4414 84.7281 10.5113 84.5265 10.6451C84.3249 10.7789 84.1681 10.9705 84.0763 11.1948C84.0167 11.3437 83.9859 11.5034 83.9886 11.664ZM91.1933 9.74388H93.3169C94.2367 9.74388 94.7775 10.2112 94.7775 10.9417C94.7791 11.174 94.7008 11.3998 94.5558 11.5809C94.4108 11.7621 94.208 11.8876 93.9816 11.9362V12.0097C94.256 12.0273 94.5132 12.1497 94.7004 12.3517C94.8877 12.5538 94.9906 12.82 94.9882 13.0959C94.9882 13.9171 94.3705 14.4534 93.3377 14.4534H91.1942V9.74388H91.1933ZM92.114 10.458V11.6767H93.0347C93.5954 11.6767 93.8649 11.4607 93.8649 11.0624C93.8649 10.6958 93.6307 10.458 93.1378 10.458H92.114ZM92.114 12.36V13.7393H93.2156C93.7645 13.7393 94.0585 13.497 94.0585 13.0523C94.0585 12.5805 93.7257 12.36 93.0998 12.36H92.114Z" fill="white"/>
</svg>
