<svg xmlns="http://www.w3.org/2000/svg" width="112" height="224" viewBox="0 0 112 224"><defs><style>.a{fill:#ff4e33;}.b{fill:#333;}</style></defs><title>catalog-sprite-3</title><path class="a" d="M47.0918,118.146a4.02258,4.02258,0,0,0-3.36914.66407,3.02058,3.02058,0,0,1-2.84864.49951c-.3789-.14209-.73437-.30519-1.07519-.46094-1.46875-.67236-2.98633-1.36767-4.76074.58106-2.02149,2.21778-3.26856,7.47217-2.51661,10.60791a3.55169,3.55169,0,0,0,2.34766,2.84961,4.43336,4.43336,0,0,0,4.15234-1.50244c.1875-.19092.36524-.38135.53809-.56592,1.11816-1.19775,1.78906-1.92187,3.46973-1.36425a3.91465,3.91465,0,0,1,1.68847,1.49169,8.01511,8.01511,0,0,0,1.11133,1.231,3.24006,3.24006,0,0,0,1.42774.71777,4.374,4.374,0,0,0,.92285.10547,2.676,2.676,0,0,0,1.79687-.62549c1.0127-.86572,1.45117-2.60351,1.30371-5.165C51.10938,124.23242,50.33789,119.09521,47.0918,118.146Zm2.23535,13.46875a2.048,2.048,0,0,1-1.85938.30273,2.22806,2.22806,0,0,1-.99414-.50488v-.00049a7.12313,7.12313,0,0,1-.96777-1.08252,4.72423,4.72423,0,0,0-2.16211-1.82422,4.29332,4.29332,0,0,0-1.35448-.2417c-1.41406,0-2.26856.91553-3.16113,1.873-.167.17871-.33887.3628-.51953.54785a3.458,3.458,0,0,1-3.17286,1.23877,2.5818,2.5818,0,0,1-1.64161-2.11865c-.66405-2.769.50977-7.75586,2.28223-9.70117,1.2832-1.40821,2.15722-1.01026,3.60645-.34571.36132.16553.73927.33789,1.14161.48828a3.94824,3.94824,0,0,0,3.69043-.56543,3.08976,3.08976,0,0,1,2.59571-.5747c2.75682.80615,3.3457,5.97607,3.47168,8.16162C50.4082,129.46875,50.07813,130.97217,49.32715,131.61475Z"/><path class="a" d="M40.5,123H39v-1.5a.5.5,0,0,0-1,0V123H36.5a.5.5,0,0,0,0,1H38v1.5a.5.5,0,0,0,1,0V124h1.5a.5.5,0,0,0,0-1Z"/><path class="a" d="M44.98254,124.00018a1,1,0,1,0,1.01728.98242h0v-.00005a.99992.99992,0,0,0-1.0172-.98236h-.00008Z"/><path class="a" d="M46.98254,122.00018a1,1,0,1,0,1.01728.98242h0v-.00005a.99992.99992,0,0,0-1.0172-.98236h-.00008Z"/><path class="a" d="M75.58691,145.48584A1.46974,1.46974,0,0,0,74.54785,145h-2.334a1.34606,1.34606,0,0,0-1.20215.68994,1.91954,1.91954,0,0,1-1.55957.69483,1.78972,1.78972,0,0,1-1.627-.79151A1.64971,1.64971,0,0,0,66.69043,145H64.45215a1.53272,1.53272,0,0,0-1.17188.53271l-3.87109,5.53858a1.32974,1.32974,0,0,0-.40527.87988,1.60374,1.60374,0,0,0,.40918,1.17188l2.19043,2.4497a1.47173,1.47173,0,0,0,1.04.48584,1.35806,1.35806,0,0,0,1.07227-.52636L64,155.13916v6.40234A1.43455,1.43455,0,0,0,65.40527,163h8.14258A1.5754,1.5754,0,0,0,75,161.54346l.02344-6.5503.34765.38819a1.47177,1.47177,0,0,0,1.04.48584,1.32144,1.32144,0,0,0,1.04-.48584l2.13867-2.3999a1.32,1.32,0,0,0,.46094-.92823,1.60359,1.60359,0,0,0-.39453-1.15576Zm3.3086,6.77881-2.19043,2.44971c-.123.13769-.18653.15283-.29395.15283a.49367.49367,0,0,1-.29493-.15283l-1.21582-1.35694a.49977.49977,0,0,0-.87207.33154L74,161.5415a.6065.6065,0,0,1-.45215.4585H65.40527A.43467.43467,0,0,1,65,161.5415v-7.94677a.5.5,0,0,0-.3457-.47559.49427.49427,0,0,0-.1543-.02441.50065.50065,0,0,0-.40527.207l-1.15625,1.603c-.124.13868-.18848.1538-.29493.1538a.4893.4893,0,0,1-.29394-.15283l-2.19043-2.4497a.60187.60187,0,0,1-.15723-.43359.33927.33927,0,0,1,.10546-.23486.4889.4889,0,0,0,.08888-.09619l3.86719-5.53858A.52188.52188,0,0,1,64.45215,146h2.23828a.67239.67239,0,0,1,.332.18213,2.7107,2.7107,0,0,0,2.42969,1.20264,2.83941,2.83941,0,0,0,2.42969-1.20264A.34119.34119,0,0,1,72.21387,146h2.334a.48451.48451,0,0,1,.2666.11963l4.05469,5.394c.00781.01123.01757.02246.02636.03271a.606.606,0,0,1,.15721.43506A.40448.40448,0,0,1,78.89551,152.26465Z"/><path class="a" d="M21.5,147H5.5A1.50164,1.50164,0,0,0,4,148.5v11A1.50164,1.50164,0,0,0,5.5,161H13v2H10.5a.5.5,0,0,0,0,1h6a.5.5,0,0,0,0-1H14v-2h7.5a1.50164,1.50164,0,0,0,1.5-1.5v-11A1.50164,1.50164,0,0,0,21.5,147Zm.5,12.5a.50066.50066,0,0,1-.5.5H5.5a.50066.50066,0,0,1-.5-.5v-11a.50066.50066,0,0,1,.5-.5h16a.50066.50066,0,0,1,.5.5Z"/><path class="a" d="M94.5,146a2.50263,2.50263,0,0,0-2.5,2.5v13a2.50263,2.50263,0,0,0,2.5,2.5h7a2.50263,2.50263,0,0,0,2.5-2.5v-13a2.50263,2.50263,0,0,0-2.5-2.5Zm8.5,2.5v13a1.50164,1.50164,0,0,1-1.5,1.5h-7a1.50164,1.50164,0,0,1-1.5-1.5v-13a1.50164,1.50164,0,0,1,1.5-1.5h7A1.50164,1.50164,0,0,1,103,148.5Z"/><path class="a" d="M97.98254,160.00018a1,1,0,1,0,1.01728.98242h0a.99994.99994,0,0,0-1.0172-.98236h0Z"/><path class="a" d="M50.01367,150.00928l-6.88476-4.63721a2.15813,2.15813,0,0,0-2.44532.0127l-6.71582,4.62547A2.24861,2.24861,0,0,0,33,151.86719V162.5a.4997.4997,0,0,0,.49942.5H37.7998A2.2241,2.2241,0,0,0,40,160.7583v-3.48975A1.25484,1.25484,0,0,1,41.208,156h1.584A1.266,1.266,0,0,1,44,157.26855v3.48975A2.2241,2.2241,0,0,0,46.2002,163H50.5a.49971.49971,0,0,0,.5-.49942h0V151.87891A2.24713,2.24713,0,0,0,50.01367,150.00928ZM50,162H46.2002A1.22273,1.22273,0,0,1,45,160.7583v-3.48975A2.27555,2.27555,0,0,0,42.80664,155H41.19336A2.253,2.253,0,0,0,39,157.26855v3.48975A1.22273,1.22273,0,0,1,37.7998,162H34V151.86719a1.25173,1.25173,0,0,1,.53418-1.03321L41.25,146.208a1.16944,1.16944,0,0,1,1.32031-.00683l6.88477,4.6372A1.25087,1.25087,0,0,1,50,151.87891Z"/><path class="a" d="M70.42969,174.96l-8.50391,8.50488a3.8161,3.8161,0,0,0-.84765,1.25293,3.45977,3.45977,0,0,0,.71093,4.126,3.6681,3.6681,0,0,0,4.5127.707,3.90291,3.90291,0,0,0,.78222-.61815l7.47071-7.6133a2.16642,2.16642,0,0,0-.05519-3.06329q-.03745-.03617-.07666-.07048a2.19154,2.19154,0,0,0-1.56346-.71973h-.02344a2.2515,2.2515,0,0,0-1.499.65332l-6.6455,6.64551a.49995.49995,0,0,0,.707.707l6.65136-6.65137a1.2898,1.2898,0,0,1,.80567-.35449h.00293a1.239,1.239,0,0,1,.85742.42676,1.17839,1.17839,0,0,1,.18566,1.65611q-.03116.039-.06553.07532l-7.46486,7.60744a2.91608,2.91608,0,0,1-.582.46093,2.68083,2.68083,0,0,1-3.293-.55565,2.465,2.465,0,0,1-.49218-3.03906,2.82267,2.82267,0,0,1,.62793-.9248l8.46971-8.47364c.12012-.0996,2.97461-2.39746,5.584.21485a4.079,4.079,0,0,1,.33008,5.44824,1.74549,1.74549,0,0,1-.19922.2334l-7.873,7.874a.5.5,0,0,0,.69993.71407l.00707-.00707,7.873-7.874a2.62021,2.62021,0,0,0,.31347-.37012,5.02186,5.02186,0,0,0-.44432-6.72558C74.14844,171.96191,70.501,174.89746,70.42969,174.96Z"/><path class="a" d="M19.5,173H7.5A1.50164,1.50164,0,0,0,6,174.5v15A1.50164,1.50164,0,0,0,7.5,191h12a1.50164,1.50164,0,0,0,1.5-1.5v-15A1.50164,1.50164,0,0,0,19.5,173Zm.5,16.5a.501.501,0,0,1-.5.5H7.5a.501.501,0,0,1-.5-.5v-15a.501.501,0,0,1,.5-.5h12a.501.501,0,0,1,.5.5Z"/><path class="a" d="M13.5,179a4.5,4.5,0,1,0,4.5,4.5A4.5,4.5,0,0,0,13.5,179Zm0,8a3.5,3.5,0,1,1,3.5-3.5A3.5,3.5,0,0,1,13.5,187Z"/><path class="a" d="M15.01746,176.99982a1,1,0,1,0-1.01728-.98242v.00006a.99993.99993,0,0,0,1.0172.98236h.00008Z"/><path class="a" d="M17.98254,175.00018a1,1,0,1,0,1.01728.98242h0a.99993.99993,0,0,0-1.01719-.98236h0Z"/><path class="a" d="M18.34412,208.15686a2.39769,2.39769,0,0,0,.6549-1.59045c.02832-1.73632-1.01464-2.418-2.18066-3.01662v-.001c-.67285-.34471-.81836-.51072-.81836-.93358V202.001a2,2,0,0,0-4,0v.61424c0,.42287-.14551.58887-.81836.93457-1.166.59863-2.209,1.28027-2.18066,3.01662a2.39764,2.39764,0,0,0,.6549,1.59045A2.49561,2.49561,0,0,0,8,210.5v6a2.5023,2.5023,0,0,0,2.5,2.5h7a2.5023,2.5023,0,0,0,2.5-2.5v-6A2.49562,2.49562,0,0,0,18.34412,208.15686Zm-6.70545-3.71741A1.968,1.968,0,0,0,13,202.61523V202.001a1,1,0,0,1,2,0v.61424a1.968,1.968,0,0,0,1.36133,1.82422c1.14648.58887,1.65527,1.03418,1.63769,2.11133A1.52881,1.52881,0,0,1,16.43164,208H11.56836a1.52879,1.52879,0,0,1-1.56736-1.44922C9.9834,205.47363,10.49219,205.02832,11.63867,204.43945ZM19,216.5a1.50164,1.50164,0,0,1-1.5,1.5h-7A1.50164,1.50164,0,0,1,9,216.5v-6a1.50164,1.50164,0,0,1,1.5-1.5h7a1.50164,1.50164,0,0,1,1.5,1.5Z"/><path class="a" d="M41.5,204.33008a5.89549,5.89549,0,0,0-7.80469.3125,5.52748,5.52748,0,0,0-.15125,7.81557h0q.07415.07706.15124.15124l7.45606,7.249a.5.5,0,0,0,.69726,0l7.45606-7.249a5.52748,5.52748,0,0,0,.15123-7.81557h0q-.07416-.07708-.15123-.15124A5.89659,5.89659,0,0,0,41.5,204.33008Zm7.10742,7.5625L41.5,218.80273l-7.10742-6.91015a4.52757,4.52757,0,0,1-.13164-6.40158q.06446-.06714.13164-.13162a4.88277,4.88277,0,0,1,6.75879,0,.49875.49875,0,0,0,.69726,0,4.884,4.884,0,0,1,6.75879,0,4.52755,4.52755,0,0,1,.13163,6.40156Q48.6746,211.82813,48.60742,211.89258Z"/><path class="a" d="M47.5,209.04688H44.28906a.49945.49945,0,0,0-.37207.166l-1.58789,1.77247-1.4668-4.20019a.49833.49833,0,0,0-.44531-.334.4797.4797,0,0,0-.47851.28418l-1.55762,3.28126H36.5a.5.5,0,0,0,0,1h2.19727a.50121.50121,0,0,0,.45214-.28515l1.1709-2.4668,1.34375,3.85057a.49707.49707,0,0,0,.374.32521.4731.4731,0,0,0,.09765.00977.50062.50062,0,0,0,.37207-.166l2.00489-2.2373H47.5a.5.5,0,0,0,0-1Z"/><path class="a" d="M49.5,174h-16a1.50164,1.50164,0,0,0-1.5,1.5v11a1.50164,1.50164,0,0,0,1.5,1.5h16a1.50164,1.50164,0,0,0,1.5-1.5v-11A1.50164,1.50164,0,0,0,49.5,174Zm.5,12.5a.501.501,0,0,1-.5.5h-16a.501.501,0,0,1-.5-.5v-11a.501.501,0,0,1,.5-.5h16a.501.501,0,0,1,.5.5Z"/><path class="a" d="M50.5,190h-18a.5.5,0,0,0,0,1h18a.5.5,0,0,0,0-1Z"/><path class="a" d="M63.13574,204.13574a9.00042,9.00042,0,1,0,12.72852,0A9.00043,9.00043,0,0,0,63.13574,204.13574Zm.707,12.02149a7.98424,7.98424,0,0,1-2.27942-6.58686,9.56063,9.56063,0,0,1,5.97181,2.52925c3.17089,3.1709,2.74218,5.98047,2.72265,6.09571a.48423.48423,0,0,0,.03235.26141,7.98714,7.98714,0,0,1-6.44736-2.29951Zm11.31446,0a7.94243,7.94243,0,0,1-3.90406,2.13849c.06823-.5185.30616-3.586-3.011-6.90314a10.41252,10.41252,0,0,0-6.49671-2.815,7.93737,7.93737,0,0,1,6.07642-5.892,10.41343,10.41343,0,0,0,2.81482,6.49315,9.10448,9.10448,0,0,0,6.35644,3.043c.12358,0,.22386-.00477.31285-.01056a7.94507,7.94507,0,0,1-2.14872,3.946Zm2.30626-4.96234c-.00715.001-.014-.00185-.02112-.00055-.1201.01855-2.92871.44726-6.09864-2.72266a9.554,9.554,0,0,1-2.52758-5.93616c.22754-.01935.45562-.03259.68383-.03259a7.985,7.985,0,0,1,7.99486,7.97513q.00045.359-.03135.71687Z"/><path class="a" d="M61.5,133H63v1.5a.5.5,0,0,0,1,0V133H76.999v1.5a.5.5,0,0,0,1,0V133H79.5a.49971.49971,0,0,0,.5-.49942h0V125.5a.4997.4997,0,0,0-.49942-.5h-.7789A2.84129,2.84129,0,0,0,77,125.5799V121.5a2.50263,2.50263,0,0,0-2.5-2.5h-8a2.50263,2.50263,0,0,0-2.5,2.5v4.08032A2.84331,2.84331,0,0,0,62.27734,125H61.5a.49971.49971,0,0,0-.5.49942h0V132.5a.4997.4997,0,0,0,.49942.5H61.5Zm3.5-5.5v-6a1.50164,1.50164,0,0,1,1.5-1.5h8a1.50164,1.50164,0,0,1,1.5,1.5V129H65ZM62,126h.27734A1.62457,1.62457,0,0,1,64,127.5v2a.49969.49969,0,0,0,.49942.5H76.5a.49971.49971,0,0,0,.5-.49942h0V127.5a1.62425,1.62425,0,0,1,1.72168-1.5H79v6H62Z"/><path class="a" d="M97.5,187a4,4,0,1,0-4-4A4,4,0,0,0,97.5,187Zm0-7a3,3,0,1,1-3,3A3,3,0,0,1,97.5,180Z"/><path class="a" d="M105.5,190a1.50164,1.50164,0,0,0,1.5-1.5v-11a1.50164,1.50164,0,0,0-1.5-1.5h-3.8291a.47467.47467,0,0,1-.45606-.33594l-.19336-.61621A1.48464,1.48464,0,0,0,99.59766,174H95.41405a1.50375,1.50375,0,0,0-1.44042,1.05859l-.18947.60645a.475.475,0,0,1-.456.335H89.5a1.50163,1.50163,0,0,0-1.5,1.5v11a1.50164,1.50164,0,0,0,1.5,1.5ZM89,188.5v-11a.501.501,0,0,1,.5-.5h3.82813a1.47067,1.47067,0,0,0,1.41114-1.03711l.18946-.60547A.506.506,0,0,1,95.41406,175h4.1836a.489.489,0,0,1,.46875.3457l.19336.61621A1.4703,1.4703,0,0,0,101.6709,177H105.5a.501.501,0,0,1,.5.5v11a.501.501,0,0,1-.5.5h-16A.501.501,0,0,1,89,188.5Z"/><path class="a" d="M13.5,135.5a9,9,0,1,0-9-9A9,9,0,0,0,13.5,135.5Zm-1.5-9a1.5,1.5,0,1,1,1.5,1.5A1.5,1.5,0,0,1,12,126.5Zm2,7.97467V128.9494A2.50668,2.50668,0,0,0,15.94946,127h5.52521A7.99849,7.99849,0,0,1,14,134.47467ZM13.5,118.5a8.00362,8.00362,0,0,1,7.97467,7.5H15.94946a2.5,2.5,0,0,0-4.89892,0H5.52533A8.00362,8.00362,0,0,1,13.5,118.5ZM11.05054,127A2.50668,2.50668,0,0,0,13,128.9494v5.52527A7.99849,7.99849,0,0,1,5.52533,127Z"/><path class="a" d="M91.5,125h12a1.50164,1.50164,0,0,0,1.5-1.5V122h1v4H97.5a.4997.4997,0,0,0-.5.49942h0V129h-.5a.49971.49971,0,0,0-.5.49942h0V135.5a.49969.49969,0,0,0,.49942.5H98.5a.49971.49971,0,0,0,.5-.49942h0V129.5a.49969.49969,0,0,0-.49942-.5H98v-2h8.5a.4997.4997,0,0,0,.5-.49942h0V121.5a.4997.4997,0,0,0-.49942-.5H105v-1.5a1.50164,1.50164,0,0,0-1.5-1.5h-12a1.50164,1.50164,0,0,0-1.5,1.5v4A1.50164,1.50164,0,0,0,91.5,125ZM98,135H97v-5h1Zm-7-15.5a.50067.50067,0,0,1,.5-.5h12a.50067.50067,0,0,1,.5.5v4a.50067.50067,0,0,1-.5.5h-12a.50067.50067,0,0,1-.5-.5Z"/><path class="a" d="M12.5,211h-2a.5.5,0,0,0,0,1h2a.5.5,0,0,0,0-1Z"/><path class="a" d="M12.5,214h-2a.5.5,0,0,0,0,1h2a.5.5,0,0,0,0-1Z"/><path class="a" d="M107.01074,210.417a3.94724,3.94724,0,0,0-3.76269-4.10157,1.96479,1.96479,0,0,0-.22264.0127,1.98485,1.98485,0,0,0,.08106-.208,3.585,3.585,0,0,0-.332-2.92285A4.37274,4.37274,0,0,0,97.291,201.415a3.59011,3.59011,0,0,0-1.98729,2.17,2.08388,2.08388,0,0,0-.05664.21485,2.01455,2.01455,0,0,0-.17187-.14061,3.94913,3.94913,0,0,0-5.45508,1.10742,4.27792,4.27792,0,0,0-.81739,2.96972,3.58968,3.58968,0,0,0,1.45021,2.56055,2.03831,2.03831,0,0,0,.18653.12012c-.0664.03906-.1289.0791-.18653.12109a3.58911,3.58911,0,0,0-1.45021,2.55957,4.37352,4.37352,0,0,0,3.38965,4.665,3.59356,3.59356,0,0,0,2.88282-.58791,2.20192,2.20192,0,0,0,.17187-.13963,1.89793,1.89793,0,0,0,.05664.21386,3.80644,3.80644,0,0,0,3.69922,2.5293,4.4295,4.4295,0,0,0,1.36523-.21777,4.27946,4.27946,0,0,0,2.40625-1.92285,3.58968,3.58968,0,0,0,.332-2.92482c-.02247-.06739-.04883-.13575-.08008-.206a1.9341,1.9341,0,0,0,.22168.01268A3.94811,3.94811,0,0,0,107.01074,210.417Zm-5.18065,2.60937a.4999.4999,0,0,0-.582.80078,3.31531,3.31531,0,0,1,.90721,1.19532,2.598,2.598,0,0,1-.248,2.11718,3.27574,3.27574,0,0,1-1.84765,1.46973,2.948,2.948,0,0,1-3.80468-1.66895v-.001a3.3181,3.3181,0,0,1,.03125-1.501.49984.49984,0,0,0-.9414-.30566,3.329,3.329,0,0,1-.85743,1.2334,2.603,2.603,0,0,1-2.09082.418,3.37433,3.37433,0,0,1-2.5996-3.5791,2.60251,2.60251,0,0,1,1.04393-1.8584,3.32129,3.32129,0,0,1,1.4375-.43457.5.5,0,0,0-.001-.99021,3.30186,3.30186,0,0,1-1.43653-.4336,2.60456,2.60456,0,0,1-1.04393-1.85937,3.27937,3.27937,0,0,1,.63182-2.27442,2.9521,2.9521,0,0,1,4.05859-.88672,3.329,3.329,0,0,1,.85743,1.2334.49983.49983,0,0,0,.9414-.30566,3.32553,3.32553,0,0,1-.03125-1.502,2.60031,2.60031,0,0,1,1.44532-1.56641,3.375,3.375,0,0,1,4.207,1.36719,2.59805,2.59805,0,0,1,.248,2.11719,3.31866,3.31866,0,0,1-.90722,1.19629.4999.4999,0,0,0,.582.80078,3.32178,3.32178,0,0,1,1.418-.49317,3.12289,3.12289,0,0,1,0,6.20412,3.322,3.322,0,0,1-1.418-.49312Z"/><path class="a" d="M95.02539,208.02539a3.5,3.5,0,1,0,4.94975.00053l-.00052-.00053A3.58429,3.58429,0,0,0,95.02539,208.02539Zm4.24219,4.24219a2.55791,2.55791,0,0,1-3.53516,0,2.5,2.5,0,1,1,3.53553-.00038h0Z"/><path class="b" d="M47.0918,6.146a4.02257,4.02257,0,0,0-3.36914.66406,3.02058,3.02058,0,0,1-2.84864.49951c-.3789-.14209-.73437-.30518-1.07519-.46094-1.46875-.67236-2.98633-1.36767-4.76074.58106-2.02149,2.21777-3.26856,7.47217-2.51661,10.60791a3.55169,3.55169,0,0,0,2.34766,2.84961,4.43336,4.43336,0,0,0,4.15234-1.50244c.1875-.19092.36524-.38135.53809-.56592,1.11816-1.19776,1.78906-1.92188,3.46973-1.36426a3.91467,3.91467,0,0,1,1.68847,1.4917,8.015,8.015,0,0,0,1.11133,1.231,3.24,3.24,0,0,0,1.42774.71777,4.374,4.374,0,0,0,.92285.10547,2.676,2.676,0,0,0,1.79687-.62549c1.0127-.86572,1.45117-2.60352,1.30371-5.165C51.10938,12.23242,50.33789,7.09521,47.0918,6.146Zm2.23535,13.46875a2.048,2.048,0,0,1-1.85938.30273,2.22816,2.22816,0,0,1-.99414-.50488v-.00049a7.12266,7.12266,0,0,1-.96777-1.08252,4.72417,4.72417,0,0,0-2.16211-1.82422,4.29332,4.29332,0,0,0-1.35448-.2417c-1.41406,0-2.26856.91553-3.16113,1.873-.167.17871-.33887.36279-.51953.54785a3.458,3.458,0,0,1-3.17286,1.23877,2.58181,2.58181,0,0,1-1.64161-2.11865c-.66405-2.769.50977-7.75586,2.28223-9.70117,1.2832-1.40821,2.15722-1.01026,3.60645-.34571.36132.16553.73927.33789,1.14161.48828a3.94824,3.94824,0,0,0,3.69043-.56543,3.08976,3.08976,0,0,1,2.59571-.5747c2.75682.80615,3.3457,5.97607,3.47168,8.16162C50.4082,17.46875,50.07813,18.97217,49.32715,19.61475Z"/><path class="b" d="M40.5,11H39V9.5a.5.5,0,0,0-1,0V11H36.5a.5.5,0,0,0,0,1H38v1.5a.5.5,0,0,0,1,0V12h1.5a.5.5,0,0,0,0-1Z"/><path class="b" d="M44.98254,12.00018a1,1,0,1,0,1.01728.98242h0a.99993.99993,0,0,0-1.0172-.98236h0Z"/><path class="b" d="M46.98254,10.00018a1,1,0,1,0,1.01728.98242h0a.99993.99993,0,0,0-1.0172-.98236h0Z"/><path class="b" d="M75.58691,33.48584A1.4697,1.4697,0,0,0,74.54785,33h-2.334a1.34608,1.34608,0,0,0-1.20215.68994,1.91954,1.91954,0,0,1-1.55957.69483,1.78968,1.78968,0,0,1-1.627-.79151A1.64971,1.64971,0,0,0,66.69043,33H64.45215a1.53272,1.53272,0,0,0-1.17188.53271l-3.87109,5.53858a1.32972,1.32972,0,0,0-.40527.87988,1.60372,1.60372,0,0,0,.40918,1.17188l2.19043,2.4497a1.47177,1.47177,0,0,0,1.04.48584,1.35806,1.35806,0,0,0,1.07227-.52636L64,43.13916V49.5415A1.43456,1.43456,0,0,0,65.40527,51h8.14258A1.5754,1.5754,0,0,0,75,49.54346l.02344-6.5503.34765.38819a1.47177,1.47177,0,0,0,1.04.48584,1.32144,1.32144,0,0,0,1.04-.48584l2.13867-2.3999a1.32,1.32,0,0,0,.46094-.92823,1.60359,1.60359,0,0,0-.39453-1.15576Zm3.3086,6.77881-2.19043,2.44971c-.123.13769-.18653.15283-.29395.15283a.49367.49367,0,0,1-.29493-.15283l-1.21582-1.35694a.49976.49976,0,0,0-.87207.33154L74,49.5415A.6065.6065,0,0,1,73.54785,50H65.40527A.43467.43467,0,0,1,65,49.5415V41.59473a.5.5,0,0,0-.3457-.47559.49456.49456,0,0,0-.1543-.02441.5007.5007,0,0,0-.40527.207l-1.15625,1.603c-.124.13867-.18848.1538-.29493.1538a.48914.48914,0,0,1-.29394-.15283L60.15918,40.456a.60184.60184,0,0,1-.15723-.43359.33929.33929,0,0,1,.10546-.23486.48862.48862,0,0,0,.08888-.09619l3.86719-5.53858A.52189.52189,0,0,1,64.45215,34h2.23828a.67224.67224,0,0,1,.332.18213,2.71068,2.71068,0,0,0,2.42969,1.20264,2.83943,2.83943,0,0,0,2.42969-1.20264A.34121.34121,0,0,1,72.21387,34h2.334a.48444.48444,0,0,1,.2666.11963l4.05469,5.394c.00781.01123.01757.02246.02636.03272a.606.606,0,0,1,.15721.43506A.40452.40452,0,0,1,78.89551,40.26465Z"/><path class="b" d="M21.5,35H5.5A1.50164,1.50164,0,0,0,4,36.5v11A1.50164,1.50164,0,0,0,5.5,49H13v2H10.5a.5.5,0,0,0,0,1h6a.5.5,0,0,0,0-1H14V49h7.5A1.50164,1.50164,0,0,0,23,47.5v-11A1.50164,1.50164,0,0,0,21.5,35ZM22,47.5a.50066.50066,0,0,1-.5.5H5.5a.50066.50066,0,0,1-.5-.5v-11a.50066.50066,0,0,1,.5-.5h16a.50066.50066,0,0,1,.5.5Z"/><path class="b" d="M94.5,34A2.50263,2.50263,0,0,0,92,36.5v13A2.50263,2.50263,0,0,0,94.5,52h7a2.50263,2.50263,0,0,0,2.5-2.5v-13a2.50263,2.50263,0,0,0-2.5-2.5Zm8.5,2.5v13a1.50164,1.50164,0,0,1-1.5,1.5h-7A1.50164,1.50164,0,0,1,93,49.5v-13A1.50164,1.50164,0,0,1,94.5,35h7A1.50164,1.50164,0,0,1,103,36.5Z"/><path class="b" d="M97.98254,48.00018a1,1,0,1,0,1.01728.98241h0v-.00005a.99994.99994,0,0,0-1.0172-.98236h-.00008Z"/><path class="b" d="M50.01367,38.00928l-6.88476-4.63721a2.15813,2.15813,0,0,0-2.44532.0127l-6.71582,4.62548A2.2486,2.2486,0,0,0,33,39.86719V50.5a.49971.49971,0,0,0,.49942.5H37.7998A2.2241,2.2241,0,0,0,40,48.7583V45.26855A1.25484,1.25484,0,0,1,41.208,44h1.584A1.266,1.266,0,0,1,44,45.26855V48.7583A2.2241,2.2241,0,0,0,46.2002,51H50.5a.49971.49971,0,0,0,.5-.49942h0V39.87891A2.24715,2.24715,0,0,0,50.01367,38.00928ZM50,50H46.2002A1.22273,1.22273,0,0,1,45,48.7583V45.26855A2.27555,2.27555,0,0,0,42.80664,43H41.19336A2.253,2.253,0,0,0,39,45.26855V48.7583A1.22273,1.22273,0,0,1,37.7998,50H34V39.86719a1.25173,1.25173,0,0,1,.53418-1.03321L41.25,34.208a1.16944,1.16944,0,0,1,1.32031-.00684l6.88477,4.63721A1.25086,1.25086,0,0,1,50,39.87891Z"/><path class="b" d="M70.42969,62.96l-8.50391,8.50488a3.8161,3.8161,0,0,0-.84765,1.25293,3.45977,3.45977,0,0,0,.71093,4.126,3.6681,3.6681,0,0,0,4.5127.707,3.90291,3.90291,0,0,0,.78222-.61815l7.47071-7.61329a2.16644,2.16644,0,0,0-.05519-3.0633h0q-.03745-.03616-.07666-.07048a2.19161,2.19161,0,0,0-1.56346-.71972h-.02344a2.2514,2.2514,0,0,0-1.499.65332l-6.6455,6.6455a.49995.49995,0,0,0,.707.707l6.65136-6.65136a1.28969,1.28969,0,0,1,.80567-.35449h.00293a1.239,1.239,0,0,1,.85742.42675,1.17839,1.17839,0,0,1,.18566,1.65612q-.03116.039-.06553.07531l-7.46486,7.60743a2.91608,2.91608,0,0,1-.582.46093,2.68082,2.68082,0,0,1-3.293-.55565,2.465,2.465,0,0,1-.49218-3.03907,2.82246,2.82246,0,0,1,.62793-.92481l8.46971-8.47363c.12012-.09961,2.97461-2.39746,5.584.21484a4.079,4.079,0,0,1,.33008,5.44824,1.74487,1.74487,0,0,1-.19922.2334l-7.873,7.874a.5.5,0,0,0,.69993.71408h0l.00707-.00708,7.873-7.874a2.61957,2.61957,0,0,0,.31347-.37011,5.02187,5.02187,0,0,0-.44432-6.72559C74.14844,59.96191,70.501,62.89746,70.42969,62.96Z"/><path class="b" d="M19.5,61H7.5A1.50164,1.50164,0,0,0,6,62.5v15A1.50164,1.50164,0,0,0,7.5,79h12A1.50164,1.50164,0,0,0,21,77.5v-15A1.50164,1.50164,0,0,0,19.5,61ZM20,77.5a.501.501,0,0,1-.5.5H7.5a.501.501,0,0,1-.5-.5v-15a.501.501,0,0,1,.5-.5h12a.501.501,0,0,1,.5.5Z"/><path class="b" d="M13.5,67A4.5,4.5,0,1,0,18,71.5,4.5,4.5,0,0,0,13.5,67Zm0,8A3.5,3.5,0,1,1,17,71.5,3.5,3.5,0,0,1,13.5,75Z"/><path class="b" d="M15.01746,64.99982a1,1,0,1,0-1.01728-.98242v.00006a.99993.99993,0,0,0,1.0172.98236h.00008Z"/><path class="b" d="M17.98254,63.00018a1,1,0,1,0,1.01728.98241h0v-.00005a.99993.99993,0,0,0-1.01719-.98236h-.00009Z"/><path class="b" d="M18.34412,96.15686a2.39767,2.39767,0,0,0,.6549-1.59045c.02832-1.73632-1.01464-2.418-2.18066-3.01661v-.001C16.14551,91.2041,16,91.03809,16,90.61523V90.001a2,2,0,0,0-4,0v.61425c0,.42286-.14551.58887-.81836.93457-1.166.59864-2.209,1.28028-2.18066,3.01661a2.39764,2.39764,0,0,0,.6549,1.59045A2.49561,2.49561,0,0,0,8,98.5v6a2.50231,2.50231,0,0,0,2.5,2.5h7a2.50231,2.50231,0,0,0,2.5-2.5v-6A2.49563,2.49563,0,0,0,18.34412,96.15686Zm-6.70545-3.71741A1.968,1.968,0,0,0,13,90.61523V90.001a1,1,0,0,1,2,0v.61425a1.968,1.968,0,0,0,1.36133,1.82422c1.14648.58887,1.65527,1.03418,1.63769,2.11133A1.5288,1.5288,0,0,1,16.43164,96H11.56836A1.5288,1.5288,0,0,1,10.001,94.55078C9.9834,93.47363,10.49219,93.02832,11.63867,92.43945ZM19,104.5a1.50164,1.50164,0,0,1-1.5,1.5h-7A1.50164,1.50164,0,0,1,9,104.5v-6A1.50164,1.50164,0,0,1,10.5,97h7A1.50164,1.50164,0,0,1,19,98.5Z"/><path class="b" d="M41.5,92.33008a5.89549,5.89549,0,0,0-7.80469.3125,5.52747,5.52747,0,0,0-.15124,7.81556q.07415.07707.15124.15124l7.45606,7.249a.5.5,0,0,0,.69726,0l7.45606-7.249a5.52748,5.52748,0,0,0,.15123-7.81556q-.07416-.07708-.15123-.15124A5.8966,5.8966,0,0,0,41.5,92.33008Zm7.10742,7.5625L41.5,106.80273l-7.10742-6.91015a4.52757,4.52757,0,0,1-.13164-6.40158q.06446-.06714.13164-.13162a4.88279,4.88279,0,0,1,6.75879,0,.49875.49875,0,0,0,.69726,0,4.884,4.884,0,0,1,6.75879,0,4.52755,4.52755,0,0,1,.13163,6.40157h0Q48.6746,99.82812,48.60742,99.89258Z"/><path class="b" d="M47.5,97.04688H44.28906a.49952.49952,0,0,0-.37207.166L42.3291,98.98535l-1.4668-4.20019a.49833.49833,0,0,0-.44531-.334.47974.47974,0,0,0-.47851.28418L38.38086,98.0166H36.5a.5.5,0,1,0,0,1h2.19727a.5012.5012,0,0,0,.45214-.28515l1.1709-2.46679,1.34375,3.85057a.497.497,0,0,0,.374.32521.47242.47242,0,0,0,.09765.00978.50065.50065,0,0,0,.37207-.166l2.00489-2.2373H47.5a.5.5,0,0,0,0-1Z"/><path class="b" d="M49.5,62h-16A1.50164,1.50164,0,0,0,32,63.5v11A1.50164,1.50164,0,0,0,33.5,76h16A1.50164,1.50164,0,0,0,51,74.5v-11A1.50164,1.50164,0,0,0,49.5,62ZM50,74.5a.501.501,0,0,1-.5.5h-16a.501.501,0,0,1-.5-.5v-11a.501.501,0,0,1,.5-.5h16a.501.501,0,0,1,.5.5Z"/><path class="b" d="M50.5,78h-18a.5.5,0,0,0,0,1h18a.5.5,0,0,0,0-1Z"/><path class="b" d="M63.13574,92.13574a9.00042,9.00042,0,1,0,12.72852,0A9.00043,9.00043,0,0,0,63.13574,92.13574Zm.707,12.02149a7.98423,7.98423,0,0,1-2.27942-6.58686,9.56063,9.56063,0,0,1,5.97181,2.52925c3.17089,3.1709,2.74218,5.98047,2.72265,6.09571a.48426.48426,0,0,0,.03235.26142,7.98714,7.98714,0,0,1-6.44736-2.29951Zm11.31446,0a7.94235,7.94235,0,0,1-3.90406,2.13849c.06823-.5185.30616-3.586-3.011-6.90313a10.41246,10.41246,0,0,0-6.49671-2.815,7.93739,7.93739,0,0,1,6.07642-5.892,10.41343,10.41343,0,0,0,2.81482,6.49315,9.10444,9.10444,0,0,0,6.35644,3.043c.12358,0,.22386-.00476.31285-.01056a7.945,7.945,0,0,1-2.14872,3.946Zm2.30626-4.96234c-.00715.001-.014-.00184-.02112-.00055-.1201.01855-2.92871.44726-6.09864-2.72266a9.554,9.554,0,0,1-2.52758-5.93616c.22754-.01935.45562-.03259.68383-.03259a7.985,7.985,0,0,1,7.99486,7.97513q.00045.359-.03135.71687Z"/><path class="b" d="M61.5,21H63v1.5a.5.5,0,0,0,1,0V21H76.999v1.5a.5.5,0,0,0,1,0V21H79.5a.49971.49971,0,0,0,.5-.49942h0V13.5a.49971.49971,0,0,0-.49942-.5h-.7789A2.84132,2.84132,0,0,0,77,13.5799V9.5A2.50263,2.50263,0,0,0,74.5,7h-8A2.50263,2.50263,0,0,0,64,9.5v4.08032A2.84331,2.84331,0,0,0,62.27734,13H61.5a.49971.49971,0,0,0-.5.49942h0V20.5a.49971.49971,0,0,0,.49942.5H61.5ZM65,15.5v-6A1.50164,1.50164,0,0,1,66.5,8h8A1.50164,1.50164,0,0,1,76,9.5V17H65ZM62,14h.27734A1.62457,1.62457,0,0,1,64,15.5v2a.49971.49971,0,0,0,.49942.5H76.5a.49971.49971,0,0,0,.5-.49942h0V15.5A1.62425,1.62425,0,0,1,78.72168,14H79v6H62Z"/><path class="b" d="M97.5,75a4,4,0,1,0-4-4A4,4,0,0,0,97.5,75Zm0-7a3,3,0,1,1-3,3A3,3,0,0,1,97.5,68Z"/><path class="b" d="M105.5,78a1.50164,1.50164,0,0,0,1.5-1.5v-11a1.50164,1.50164,0,0,0-1.5-1.5h-3.8291a.47466.47466,0,0,1-.45606-.33594l-.19336-.61621A1.48466,1.48466,0,0,0,99.59766,62H95.41405a1.50376,1.50376,0,0,0-1.44042,1.05859l-.18947.60645a.475.475,0,0,1-.456.335H89.5A1.50163,1.50163,0,0,0,88,65.5v11A1.50164,1.50164,0,0,0,89.5,78ZM89,76.5v-11a.501.501,0,0,1,.5-.5h3.82813a1.47066,1.47066,0,0,0,1.41114-1.03711l.18946-.60547A.506.506,0,0,1,95.41406,63h4.1836a.489.489,0,0,1,.46875.3457l.19336.61621A1.4703,1.4703,0,0,0,101.6709,65H105.5a.501.501,0,0,1,.5.5v11a.501.501,0,0,1-.5.5h-16A.501.501,0,0,1,89,76.5Z"/><path class="b" d="M13.5,23.5a9,9,0,1,0-9-9A9,9,0,0,0,13.5,23.5Zm-1.5-9A1.5,1.5,0,1,1,13.5,16,1.5,1.5,0,0,1,12,14.5Zm2,7.97467V16.9494A2.5067,2.5067,0,0,0,15.94946,15h5.52521A7.9985,7.9985,0,0,1,14,22.47467ZM13.5,6.5A8.00362,8.00362,0,0,1,21.47467,14H15.94946a2.5,2.5,0,0,0-4.89892,0H5.52533A8.00362,8.00362,0,0,1,13.5,6.5ZM11.05054,15A2.5067,2.5067,0,0,0,13,16.9494v5.52527A7.9985,7.9985,0,0,1,5.52533,15Z"/><path class="b" d="M91.5,13h12a1.50164,1.50164,0,0,0,1.5-1.5V10h1v4H97.5a.49971.49971,0,0,0-.5.49942h0V17h-.5a.49971.49971,0,0,0-.5.49942h0V23.5a.49971.49971,0,0,0,.49942.5H98.5a.49971.49971,0,0,0,.5-.49942h0V17.5a.49971.49971,0,0,0-.49942-.5H98V15h8.5a.49971.49971,0,0,0,.5-.49942h0V9.5a.49971.49971,0,0,0-.49942-.5H105V7.5A1.50164,1.50164,0,0,0,103.5,6h-12A1.50164,1.50164,0,0,0,90,7.5v4A1.50164,1.50164,0,0,0,91.5,13ZM98,23H97V18h1ZM91,7.5a.50066.50066,0,0,1,.5-.5h12a.50066.50066,0,0,1,.5.5v4a.50066.50066,0,0,1-.5.5h-12a.50066.50066,0,0,1-.5-.5Z"/><path class="b" d="M12.5,99h-2a.5.5,0,0,0,0,1h2a.5.5,0,0,0,0-1Z"/><path class="b" d="M12.5,102h-2a.5.5,0,0,0,0,1h2a.5.5,0,0,0,0-1Z"/><path class="b" d="M107.01074,98.417a3.94723,3.94723,0,0,0-3.76269-4.10156,1.96016,1.96016,0,0,0-.22264.0127,1.98588,1.98588,0,0,0,.08106-.208,3.585,3.585,0,0,0-.332-2.92285A4.37273,4.37273,0,0,0,97.291,89.415a3.59006,3.59006,0,0,0-1.98729,2.17,2.08437,2.08437,0,0,0-.05664.21484,2.01646,2.01646,0,0,0-.17187-.14061,3.94915,3.94915,0,0,0-5.45508,1.10742,4.27792,4.27792,0,0,0-.81739,2.96972,3.5897,3.5897,0,0,0,1.45021,2.56055,2.04247,2.04247,0,0,0,.18653.12011c-.0664.03906-.1289.0791-.18653.1211a3.58911,3.58911,0,0,0-1.45021,2.55957,4.3735,4.3735,0,0,0,3.38965,4.665,3.59355,3.59355,0,0,0,2.88282-.5879,2.19975,2.19975,0,0,0,.17187-.13964,1.8968,1.8968,0,0,0,.05664.21386,3.80644,3.80644,0,0,0,3.69922,2.5293,4.4295,4.4295,0,0,0,1.36523-.21777,4.27942,4.27942,0,0,0,2.40625-1.92285,3.58968,3.58968,0,0,0,.332-2.92482c-.02247-.06739-.04883-.13575-.08008-.206a1.9341,1.9341,0,0,0,.22168.01268A3.9481,3.9481,0,0,0,107.01074,98.417Zm-5.18065,2.60938a.4999.4999,0,0,0-.582.80078,3.31523,3.31523,0,0,1,.90721,1.19532,2.598,2.598,0,0,1-.248,2.11718,3.27578,3.27578,0,0,1-1.84765,1.46973,2.948,2.948,0,0,1-3.80468-1.669v-.001a3.3182,3.3182,0,0,1,.03125-1.501.49984.49984,0,0,0-.9414-.30567,3.32889,3.32889,0,0,1-.85743,1.2334,2.603,2.603,0,0,1-2.09082.418,3.37434,3.37434,0,0,1-2.5996-3.5791,2.60249,2.60249,0,0,1,1.04393-1.8584,3.32089,3.32089,0,0,1,1.4375-.43457.5.5,0,0,0-.001-.99022,3.302,3.302,0,0,1-1.43653-.4336,2.6046,2.6046,0,0,1-1.04393-1.85937,3.27932,3.27932,0,0,1,.63182-2.27442,2.95209,2.95209,0,0,1,4.05859-.88672,3.32881,3.32881,0,0,1,.85743,1.2334.49983.49983,0,0,0,.9414-.30566,3.32552,3.32552,0,0,1-.03125-1.502,2.60037,2.60037,0,0,1,1.44532-1.5664,3.375,3.375,0,0,1,4.207,1.36719,2.598,2.598,0,0,1,.248,2.11718,3.31875,3.31875,0,0,1-.90722,1.19629.4999.4999,0,0,0,.582.80078,3.32175,3.32175,0,0,1,1.418-.49315,3.12289,3.12289,0,0,1,0,6.2041,3.32169,3.32169,0,0,1-1.418-.49311Z"/><path class="b" d="M95.02539,96.02539a3.5,3.5,0,1,0,4.94975.00053l-.00052-.00053A3.58431,3.58431,0,0,0,95.02539,96.02539Zm4.24219,4.24219a2.55791,2.55791,0,0,1-3.53516,0,2.5,2.5,0,1,1,3.53553-.00038h0Z"/></svg>