<?xml version="1.0" encoding="UTF-8"?>
<!-- Generator: Adobe Illustrator 15.0.2, SVG Export Plug-In . SVG Version: 6.00 Build 0)  -->
<!DOCTYPE svg PUBLIC "-//W3C//DTD SVG 1.1//EN" "http://www.w3.org/Graphics/SVG/1.1/DTD/svg11.dtd">
<svg version="1.1" id="Layer_1" xmlns="http://www.w3.org/2000/svg" xmlns:xlink="http://www.w3.org/1999/xlink" x="0px" y="0px" width="30px" height="30px" viewBox="0 0.021 30 30" enable-background="new 0 0.021 30 30" xml:space="preserve">
<path fill="#3B5998" d="M29.984,28.144c0,1.034-0.839,1.875-1.874,1.875H1.874C0.839,30.019,0,29.178,0,28.144V1.896  c0-1.035,0.839-1.875,1.874-1.875H28.11c1.035,0,1.874,0.84,1.874,1.875V28.144z"/>
<path id="f" fill="#FFFFFF" d="M20.265,29.901V19.663h3.739l0.934-4.266h-4.673v-1.706c0-1.707,0.937-2.56,2.805-2.56h1.868V6.866  c-0.934,0-2.093,0-3.737,0c-3.435,0-5.608,2.458-5.608,5.972v2.559h-3.738v4.266h3.738v10.238H20.265z"/>
</svg>