<?xml version="1.0" encoding="utf-8"?>
<svg version="1.1" id="Layer_1" xmlns="http://www.w3.org/2000/svg" xmlns:xlink="http://www.w3.org/1999/xlink" x="0px" y="0px"
	 viewBox="0 0 990.2 293" style="enable-background:new 0 0 990.2 293;" xml:space="preserve">
<style type="text/css">
	.st0{fill:#6D6E70;}
	.st1{fill:#FFB217;}
	.st2{fill-rule:evenodd;clip-rule:evenodd;fill:#A2DDF8;}
	.st3{fill-rule:evenodd;clip-rule:evenodd;fill:#029CE4;}
	.st4{fill-rule:evenodd;clip-rule:evenodd;fill:#FF4E33;}
</style>
<path class="st0" d="M7,243.5h14.8v36.6h3.9v-36.6h14.8V240H7V243.5z M88.1,239.5c-5,0-10.7,0.5-14.5,4.4
	c-4.3,4.3-4.9,11.4-4.9,15.9c0,8.7,2.4,13.6,4.9,16.2c4.3,4.3,11,4.5,14.5,4.5s10.2-0.2,14.5-4.5c2.5-2.6,4.9-7.5,4.9-16.2
	c0-4.5-0.6-11.6-4.9-15.9C98.8,240.1,93,239.5,88.1,239.5L88.1,239.5z M100.2,273.2c-3.1,3.5-8.1,3.9-12.1,3.9s-9-0.4-12.1-3.9
	c-3.3-3.6-3.2-9.7-3.2-13c0-3.5,0-9.8,3.1-13.4c3-3.4,8.4-3.7,12.2-3.7s9.1,0.3,12.1,3.7c3.1,3.6,3.1,9.9,3.1,13.4
	C103.3,263.5,103.4,269.5,100.2,273.2L100.2,273.2z M156.2,240h-9.9c-1.6-0.1-3.1,0.3-4.4,1.2c-1.2,0.9-1.9,2.3-1.9,3.8v48h3.9
	v-12.9h11.1c6.4,0,10.8-1.2,13.9-6c2.8-4.4,3.1-9.6,3.1-14.7c0-4.8-0.1-10.5-4.1-14.8C164.1,240.4,158.8,240,156.2,240L156.2,240z
	 M165.7,272c-2.1,3-5.5,4.7-9.1,4.5h-12.7v-31.1c-0.1-0.5,0.2-1.1,0.6-1.4c0.3-0.3,0.7-0.5,1.2-0.5h11.3c4.1-0.2,7.8,2.1,9.5,5.8
	c0.9,2,1.4,5.1,1.4,10.6C167.9,265.2,167.5,269.2,165.7,272z M205.3,241.9c-0.5,1.2-0.7,2.5-0.6,3.9v34.4h3.9v-33.7
	c-0.1-0.8,0.1-1.6,0.4-2.3c0.4-0.4,1-0.7,1.6-0.6h23.6V240h-25C207.6,239.8,206.1,240.6,205.3,241.9L205.3,241.9z M281.7,239.5
	c-5,0-10.7,0.5-14.5,4.4c-4.3,4.3-4.9,11.4-4.9,15.9c0,8.7,2.4,13.6,4.9,16.2c4.3,4.3,11,4.5,14.5,4.5s10.2-0.2,14.5-4.5
	c2.5-2.6,4.9-7.5,4.9-16.2c0-4.5-0.6-11.6-4.9-15.9C292.4,240.1,286.7,239.5,281.7,239.5L281.7,239.5z M293.8,273.2
	c-3.1,3.5-8.1,3.9-12.1,3.9s-9-0.4-12.1-3.9c-3.3-3.6-3.2-9.7-3.2-13c0-3.5,0-9.8,3.1-13.4c3-3.4,8.4-3.7,12.1-3.7
	c3.7,0,9.1,0.3,12.1,3.7c3.1,3.6,3.1,9.9,3.1,13.4C297,263.5,297.1,269.5,293.8,273.2L293.8,273.2z M363.2,256.8
	c1.4-1.8,1.5-4,1.5-6.1c0-2.4-0.3-5.7-2-7.8c-2.1-2.7-5.6-3-7.3-3h-17.1c-1.2,0-2.4,0.5-3.3,1.4c-0.8,0.9-1.3,2.2-1.3,3.4v30.6
	c-0.1,1.2,0.2,2.5,1,3.5c0.9,0.9,2,1.3,3.3,1.3h18.2c2.2,0.1,4.4-0.8,5.9-2.5c2.4-2.7,2.6-6.4,2.6-9.7c0-2,0-4.2-1.3-6.1
	c-1-1.4-2.4-2.3-4.1-2.6v-0.1C360.9,258.9,362.3,258.1,363.2,256.8L363.2,256.8z M360.6,268.6c0,2,0,4.5-1.4,6.2
	c-1.3,1.7-3,1.7-5.2,1.7h-14c-0.7,0.1-1.4-0.1-1.9-0.6c-0.3-0.6-0.5-1.2-0.4-1.9V261h17.2c1.7-0.1,3.3,0.5,4.4,1.8
	C360.6,264.5,360.6,266.9,360.6,268.6L360.6,268.6z M359.1,255.7c-1.3,1.5-2.7,1.7-4.3,1.7h-17.2V245c0-0.4,0.1-0.8,0.4-1.1
	c0.4-0.2,0.8-0.4,1.2-0.4h15.6c1.5-0.1,3,0.4,4.1,1.4c1.6,1.5,1.6,3.9,1.6,5.4C360.6,252.1,360.5,254.1,359.1,255.7L359.1,255.7z
	 M433.2,280.1h3.9V240h-3.9V280.1z M419.3,257.2h-18.1V240h-3.9v35.5c0,1.3,0,2.7,1,3.7c0.9,0.7,2.1,1.1,3.3,0.9h17
	c2.7,0,5.2,0,7.3-2c2.7-2.6,2.9-7.6,2.9-9.9c0-2.7-0.3-6.3-2.7-8.7C424.2,257.9,421.8,257,419.3,257.2L419.3,257.2z M423.3,274.7
	c-0.9,1.3-2.4,2-4,1.9H403c-0.5,0-1.3,0.1-1.6-0.5c-0.1-0.6-0.2-1.2-0.2-1.8v-13.5h18.1c1.5-0.1,3,0.6,3.9,1.7
	c1.3,1.7,1.3,4.2,1.3,5.7C424.6,272.1,424,273.8,423.3,274.7L423.3,274.7z M480.2,235.4c4.5,3.2,10.6,3.2,15.1,0
	c1.7-1.6,3-3.7,3.6-6h-4.4c-0.4,1.2-1,2.3-1.9,3.3c-2.9,2-6.7,2-9.6,0c-0.9-0.9-1.5-2-1.9-3.3h-4.4
	C477.3,231.7,478.5,233.7,480.2,235.4L480.2,235.4z M500.5,239.5c-1.7,0-3.3,0.9-4.1,2.4l-20.2,32.9c-0.3,0.5-0.5,1-0.8,1
	c-0.4,0-0.4-0.6-0.4-1V240h-3.9v36.4c0,2.7,1.3,4.2,3.6,4.2c1.9,0,3-0.9,4.2-2.9l20-32.5c0.5-0.8,0.7-0.9,0.8-0.9
	c0.4,0,0.4,0.5,0.4,0.9v34.9h3.9v-36C503.9,243,503.9,239.5,500.5,239.5L500.5,239.5z M608.2,240h-21.5c-2.4,0-3.6,1.1-4,1.7
	c-0.6,1.3-0.9,2.7-0.8,4.1v34.3h3.9v-34.3c-0.1-0.7,0.1-1.3,0.4-1.9c0.4-0.2,0.8-0.4,1.3-0.4h20.2c0.4,0,0.9,0.1,1.3,0.4
	c0.3,0.6,0.4,1.2,0.4,1.9v34.3h3.9v-34.3c0.1-1.4-0.2-2.8-0.8-4.1C611.8,241,610.7,240,608.2,240L608.2,240z M665.1,239.5
	c-5,0-10.7,0.5-14.5,4.4c-4.3,4.3-4.9,11.4-4.9,15.9c0,8.7,2.4,13.6,4.9,16.2c4.3,4.3,11,4.5,14.5,4.5s10.2-0.2,14.5-4.5
	c2.5-2.6,4.9-7.5,4.9-16.2c0-4.5-0.6-11.6-4.9-15.9C675.7,240.1,670,239.5,665.1,239.5L665.1,239.5z M677.1,273.2
	c-3.1,3.5-8.1,3.9-12.1,3.9s-9-0.4-12.1-3.9c-3.3-3.6-3.2-9.7-3.2-13c0-3.5,0-9.8,3.1-13.4c3-3.4,8.4-3.7,12.2-3.7s9.1,0.3,12.1,3.7
	c3.1,3.6,3.1,9.9,3.1,13.4C680.3,263.5,680.4,269.5,677.1,273.2L677.1,273.2z M733.2,240h-9.9c-1.6-0.1-3.1,0.3-4.4,1.2
	c-1.2,0.9-1.9,2.3-1.8,3.8v48h3.8v-12.9H732c6.4,0,10.8-1.2,13.9-6c2.8-4.4,3.1-9.6,3.1-14.7c0-4.8-0.1-10.5-4.1-14.8
	C741.1,240.4,735.8,240,733.2,240L733.2,240z M742.7,272c-2.1,3-5.5,4.7-9.1,4.5h-12.7v-31.1c-0.1-0.5,0.2-1.1,0.6-1.4
	c0.3-0.3,0.7-0.5,1.2-0.5h11.3c4.1-0.2,7.8,2.1,9.5,5.8c0.9,2,1.4,5.1,1.4,10.6C744.9,265.2,744.5,269.2,742.7,272L742.7,272z
	 M777.2,243.5h14.8v36.6h3.9v-36.6h14.8V240h-33.5L777.2,243.5L777.2,243.5z M861.1,240h-19.3v3.6h19c1.6,0,3.1,0.6,4.1,1.8
	c0.9,1.4,1.4,3.1,1.5,4.8v6h-17c-2.2,0-5.2,0.3-7.3,2.1c-2.8,2.4-3.3,6.2-3.3,9.5c0,2.4,0.2,7.9,3.5,10.6c2.1,1.7,4.9,1.8,7.1,1.8
	h15.1c1.3,0,3.3,0,4.4-1.1c1-1.2,1.5-2.7,1.3-4.2v-24c0-2.4-0.3-5.8-2.4-8C866.2,240.9,863.7,239.9,861.1,240L861.1,240z
	 M866.5,274.8c0.1,0.5-0.1,1-0.5,1.4c-0.5,0.4-1.1,0.5-1.7,0.5h-15.9c-1.5,0-2.9-0.6-3.8-1.7c-1.3-1.7-1.6-4.5-1.6-7
	c0-2.8,0.3-4.9,1.3-6.2c1-1.3,2.6-2,4.3-2h17.9V274.8z M921.7,242.7c-1.2-3-3.1-3.2-3.9-3.2s-2.7,0.2-3.8,3.2l-14.7,37.4h4.4
	l13.5-35.1c0.1-0.5,0.4-1.2,0.7-1.2s0.6,0.8,0.7,1.2l13.5,35.1h4.4L921.7,242.7L921.7,242.7z"/>
<path class="st1" d="M122.5,73.7L66.5,58.3c-6.4-1.5-13.9-4-13.9-9.4c0-2,1-3.5,2.5-4.5c3-1,6-1.5,8.9-1h84.3V1.3H38.7
	C28.3,0.8,17.9,4.8,10.4,11.7C0.5,21.6,0,35,0,45.4c0,12.4,1,27.3,8.9,37.7c4.5,6.4,11.4,10.9,18.9,12.9l64.5,18.4
	c5.5,1.5,10.9,3,10.9,8.4c0,2.5-1.5,5.5-9.4,5.5H1.5v42.2h113.6c11.4,0,23.8,0,33.2-12.9c7.4-10.4,7.9-23.8,7.9-33.7
	c0-11.4-1-28.3-11.4-38.7C138.9,79.7,131,75.7,122.5,73.7L122.5,73.7z"/>
<path class="st1" d="M285.7,51.9c-13.4-9.9-28.3-9.4-42.7-9.4h-27.8V1.3h-46.6v169.7h46.6V75.7h14.9c7.4-0.5,14.4,2.5,19.3,7.4
	c5,6,7.9,13.9,6.9,21.8v65.5h46.6V87.1C303.1,73.2,296.6,60.3,285.7,51.9L285.7,51.9z"/>
<path class="st1" d="M443,52.9C429.1,40.5,406.8,40,386.9,40s-42.2,0.5-56.1,12.9c-15.9,14.4-16.4,39.7-16.4,52.6s1,38.2,16.4,52.6
	c13.9,12.4,36.2,12.9,56.1,12.9s42.2-0.5,56.1-12.9c15.9-14.4,16.4-39.7,16.4-52.6C459.4,93.1,458.4,67.3,443,52.9z M407.3,128.3
	c-2,3-7.9,8.9-20.3,8.9c-14.4,0-19.8-7.4-20.8-8.9c-2-2.5-4.5-8.4-4.5-22.3c0-14.9,3-20.3,4.5-22.8c2.5-3,7.9-8.4,20.8-8.4
	s18.4,5,20.8,8.4s4.5,9.4,4.5,22.8C412.7,113.4,411.2,121.3,407.3,128.3z"/>
<path class="st1" d="M555.6,41.5h-58.5c-6.4-0.5-12.4,1-17.9,4.5c-6,4.5-9.4,12.4-8.4,19.8v145.3h46.6V170h34.2
	c12.9,0,32.2-1,43.2-17.9c9.9-14.4,10.4-39.2,10.4-50.6c0-12.4-1-33.7-13.4-47.1C580.4,42.5,564,41.5,555.6,41.5L555.6,41.5z
	 M555.1,125.8c-3.5,6.4-9.9,10.4-17.4,9.9h-20.3V82.2c0-1.5,0.5-3,1.5-4.5c1-1,2.5-1.5,4-1.5h16.4c7.4-0.5,13.9,4,16.4,10.9
	c2,6,2.5,12.4,2,18.9C558.6,112.4,557.6,119.4,555.1,125.8L555.1,125.8z"/>
<path class="st1" d="M783.8,44.9h-33.2V5.3h-46.1v141.9c-0.5,5.5,1.5,10.9,5.5,15.4c5.5,5.5,12.4,7.9,19.8,7.4h54.6
	c12.4,0,32.7-2,44.1-20.8c5-8.9,8.4-21.3,8.4-41.7c0-12.9-0.5-28.8-8.4-41.7C816.5,45.9,796.7,44.9,783.8,44.9L783.8,44.9z
	 M786.3,127.8c-2.5,5-6.9,8.4-15.9,8.4H761c-3,0.5-6-0.5-8.4-2c-2-2.5-2.5-6-2.5-8.9V77.7h20.8c6.4-0.5,12.9,3.5,15.4,9.4
	c2.5,6.4,3.5,12.9,3,19.3C790.2,113.4,788.7,120.8,786.3,127.8L786.3,127.8z"/>
<path class="st1" d="M944,47.9l-34.7,78.9L877,47.9h-47.1l59,124.5l-19.3,40.2h46.1l74.4-164.7L944,47.9z"/>
<path class="st2" d="M616.6,121.8l-36.2,24.3c-0.5,0.5-1,1-1.5,1.5c-0.5,0.5-0.5,1.5-0.5,2c0.5,1,0.5,1.5,1,2l35.7,42.2
	c0.5,0.5,1,1,2,1l46.6,11.9c0.5,0,1,0,2,0c0.5,0,1.5-0.5,2-1l34.7-32.2c0.5-0.5,1-1,1-2l11.4-55.6v-2c-0.5-0.5-1-1.5-1.5-2
	c-0.5-0.5-1.5-1-2-0.5l-34.7,1C655.8,113.9,636,117.4,616.6,121.8L616.6,121.8z"/>
<path class="st3" d="M664.7,206.7c1,0,1.5-0.5,2-1l34.7-32.2c0.5-0.5,1-1,1-2l11.4-55.6c0-1,0-2,0-3c-20.3,18.4-48.1,43.2-55.1,49.6
	C660.8,176.9,662.7,191.3,664.7,206.7L664.7,206.7z"/>
<path class="st4" d="M626.5,138.2l-20.8,14.9l0.5,1l24.3,45.1l12.9,3l-6.9-43.7l16.4-15.9l23.8,5l4.5,45.1l7.9-7.4l1.5-51.1l-25.3-3
	l17.9-17.9l-10.4,0.5l12.9-26.8l-18.9,4.5l-14.4-12.4l-9.9,37.2L626,69.3l-11.9,16.9l-19.8,3l27.3,39.2l-12.4-1l-10.9,7.4
	L626.5,138.2z"/>
</svg>
