<svg width="135" height="40" viewBox="0 0 135 40" fill="none" xmlns="http://www.w3.org/2000/svg">
<rect width="135" height="40" rx="5" fill="black"/>
<path d="M68.2083 21.75C67.3651 21.752 66.5415 22.0037 65.8415 22.4733C65.1415 22.9429 64.5966 23.6093 64.2758 24.3883C63.9549 25.1672 63.8724 26.0237 64.0388 26.8495C64.2052 27.6753 64.6129 28.4332 65.2104 29.0275C65.808 29.6218 66.5685 30.0257 67.3958 30.1882C68.2232 30.3507 69.0802 30.2645 69.8585 29.9404C70.6367 29.6164 71.3014 29.0691 71.7683 28.3677C72.2352 27.6663 72.4835 26.8424 72.4817 26C72.4901 25.4379 72.3851 24.8798 72.1731 24.3591C71.961 23.8383 71.6461 23.3656 71.2473 22.969C70.8484 22.5724 70.3737 22.2601 69.8514 22.0506C69.3292 21.8412 68.7701 21.739 68.2074 21.75H68.2083ZM68.2083 28.58C67.6914 28.6162 67.1755 28.4961 66.7278 28.2354C66.2801 27.9748 65.9212 27.5856 65.6978 27.1185C65.4744 26.6514 65.3969 26.1279 65.4753 25.6162C65.5536 25.1045 65.7843 24.6281 66.1372 24.2491C66.4902 23.87 66.9491 23.6058 67.4543 23.4908C67.9596 23.3758 68.4878 23.4153 68.9703 23.6041C69.4527 23.793 69.8672 24.1225 70.1598 24.5497C70.4523 24.977 70.6095 25.4824 70.6107 26C70.6267 26.328 70.5768 26.6559 70.464 26.9643C70.3512 27.2728 70.1778 27.5555 69.9539 27.7959C69.73 28.0364 69.4602 28.2296 69.1604 28.3643C68.8607 28.4989 68.5369 28.5723 68.2083 28.58V28.58ZM58.879 21.75C58.0359 21.7522 57.2123 22.0041 56.5124 22.4738C55.8126 22.9435 55.2678 23.6099 54.9471 24.3889C54.6263 25.1679 54.544 26.0243 54.7105 26.8501C54.877 27.6758 55.2848 28.4336 55.8823 29.0278C56.4799 29.622 57.2405 30.0258 58.0678 30.1883C58.8951 30.3507 59.752 30.2644 60.5302 29.9403C61.3085 29.6163 61.973 29.069 62.4399 28.3676C62.9068 27.6662 63.1551 26.8423 63.1533 26C63.1617 25.4379 63.0567 24.8798 62.8446 24.3591C62.6326 23.8383 62.3177 23.3656 61.9188 22.969C61.52 22.5724 61.0453 22.2601 60.523 22.0506C60.0007 21.8412 59.4416 21.739 58.879 21.75V21.75ZM58.879 28.58C58.362 28.6162 57.8462 28.4961 57.3985 28.2354C56.9507 27.9748 56.5919 27.5856 56.3685 27.1185C56.1451 26.6514 56.0676 26.1279 56.1459 25.6162C56.2243 25.1045 56.4549 24.6281 56.8079 24.2491C57.1608 23.87 57.6197 23.6058 58.125 23.4908C58.6302 23.3758 59.1584 23.4153 59.6409 23.6041C60.1234 23.793 60.5379 24.1225 60.8304 24.5497C61.123 24.977 61.2801 25.4824 61.2814 26C61.2974 26.328 61.2475 26.6559 61.1347 26.9643C61.0219 27.2728 60.8485 27.5555 60.6246 27.7959C60.4007 28.0364 60.1309 28.2296 59.8311 28.3643C59.5313 28.4989 59.2076 28.5723 58.879 28.58V28.58ZM47.7879 23.06V24.86H52.1122C52.0444 25.7078 51.6916 26.5078 51.1112 27.13C50.6775 27.5716 50.1557 27.9173 49.5798 28.1446C49.0039 28.372 48.3866 28.4761 47.7679 28.45C46.4936 28.45 45.2714 27.9443 44.3704 27.0442C43.4693 26.144 42.9631 24.9231 42.9631 23.65C42.9631 22.377 43.4693 21.1561 44.3704 20.2559C45.2714 19.3558 46.4936 18.85 47.7679 18.85C48.9895 18.8319 50.1692 19.2954 51.0511 20.14L52.3224 18.87C51.7258 18.2805 51.0174 17.8159 50.2388 17.5034C49.4602 17.1909 48.6269 17.0368 47.7879 17.05C46.8961 17.0123 46.0059 17.1553 45.1709 17.4702C44.3358 17.7851 43.5732 18.2656 42.9288 18.8826C42.2845 19.4997 41.7717 20.2406 41.4215 21.0607C41.0712 21.8809 40.8906 22.7634 40.8906 23.655C40.8906 24.5467 41.0712 25.4292 41.4215 26.2493C41.7717 27.0695 42.2845 27.8104 42.9288 28.4274C43.5732 29.0445 44.3358 29.5249 45.1709 29.8399C46.0059 30.1548 46.8961 30.2977 47.7879 30.26C48.644 30.2941 49.4977 30.1468 50.2928 29.828C51.0879 29.5092 51.8066 29.0259 52.4016 28.41C53.4531 27.2566 54.0135 25.7393 53.9641 24.18C53.9674 23.8047 53.9369 23.4299 53.8731 23.06H47.7879ZM93.1433 24.46C92.882 23.6929 92.3937 23.0231 91.7431 22.5392C91.0925 22.0553 90.3102 21.7801 89.4996 21.75C88.9521 21.749 88.4101 21.8601 87.9073 22.0766C87.4044 22.293 86.9513 22.6102 86.5761 23.0086C86.2008 23.4069 85.9113 23.8779 85.7254 24.3924C85.5396 24.907 85.4614 25.4541 85.4956 26C85.487 26.9129 85.7743 27.804 86.3145 28.5403C86.8547 29.2766 87.6189 29.8185 88.4929 30.0852C89.3668 30.3518 90.3037 30.3289 91.1635 30.0197C92.0233 29.7106 92.7599 29.1319 93.2634 28.37L91.8119 27.37C91.5955 27.7305 91.2885 28.0282 90.9213 28.2334C90.5542 28.4387 90.1396 28.5444 89.7189 28.54C89.2852 28.5579 88.8562 28.4442 88.4883 28.214C88.1205 27.9837 87.8309 27.6477 87.6578 27.25L93.3535 24.9L93.1433 24.46V24.46ZM87.3374 25.88C87.3172 25.5694 87.3591 25.2579 87.4608 24.9637C87.5626 24.6694 87.7221 24.3984 87.9299 24.1666C88.1378 23.9347 88.3899 23.7466 88.6715 23.6132C88.953 23.4799 89.2584 23.404 89.5697 23.39C89.8922 23.3704 90.2134 23.4462 90.4929 23.6081C90.7725 23.77 90.998 24.0107 91.1412 24.3L87.3374 25.88ZM82.7128 30H84.5847V17.5H82.7128V30ZM79.6498 22.7H79.5797C79.2955 22.391 78.9483 22.1463 78.5616 21.9824C78.1748 21.8186 77.7574 21.7393 77.3374 21.75C76.2435 21.803 75.212 22.2745 74.4565 23.0666C73.7011 23.8588 73.2797 24.9109 73.2797 26.005C73.2797 27.0991 73.7011 28.1513 74.4565 28.9435C75.212 29.7356 76.2435 30.207 77.3374 30.26C77.7618 30.2685 78.1829 30.1833 78.5705 30.0105C78.9581 29.8376 79.3027 29.5814 79.5797 29.26H79.6498V29.87C79.6498 31.5 78.7789 32.37 77.3775 32.37C76.9093 32.3598 76.4548 32.2107 76.0716 31.9419C75.6884 31.673 75.3939 31.2965 75.2253 30.86L73.6037 31.53C73.9035 32.2823 74.4248 32.9259 75.0986 33.3759C75.7724 33.8258 76.5671 34.0609 77.3775 34.05C79.5697 34.05 81.3815 32.76 81.3815 29.62V22H79.6498V22.7V22.7ZM77.4976 28.58C76.8391 28.5429 76.2198 28.2555 75.7667 27.7766C75.3137 27.2978 75.0613 26.6639 75.0613 26.005C75.0613 25.3462 75.3137 24.7123 75.7667 24.2334C76.2198 23.7546 76.8391 23.4671 77.4976 23.43C77.8182 23.4439 78.1327 23.522 78.4224 23.6597C78.7121 23.7974 78.9712 23.9919 79.1841 24.2317C79.397 24.4715 79.5595 24.7516 79.6619 25.0554C79.7642 25.3592 79.8043 25.6804 79.7799 26C79.8072 26.3207 79.7691 26.6436 79.6679 26.9492C79.5668 27.2548 79.4046 27.5367 79.1913 27.7778C78.9779 28.019 78.7178 28.2144 78.4267 28.3523C78.1356 28.4902 77.8195 28.5677 77.4976 28.58ZM101.911 17.5H97.4266V30H99.2985V25.26H101.911C102.444 25.2965 102.978 25.2232 103.481 25.0447C103.983 24.8662 104.444 24.5863 104.834 24.2224C105.224 23.8586 105.535 23.4185 105.748 22.9295C105.96 22.4406 106.07 21.9131 106.07 21.38C106.07 20.8469 105.96 20.3195 105.748 19.8305C105.535 19.3416 105.224 18.9015 104.834 18.5376C104.444 18.1738 103.983 17.8939 103.481 17.7154C102.978 17.5369 102.444 17.4636 101.911 17.5V17.5ZM101.911 23.5H99.2985V19.24H101.951C102.375 19.2394 102.79 19.3645 103.142 19.5995C103.495 19.8345 103.77 20.1688 103.932 20.5601C104.094 20.9514 104.136 21.382 104.053 21.7972C103.97 22.2125 103.766 22.5938 103.465 22.8928C103.064 23.2946 102.519 23.52 101.951 23.52L101.911 23.5V23.5ZM113.463 21.71C112.781 21.6683 112.102 21.8269 111.51 22.1664C110.917 22.5058 110.437 23.0112 110.129 23.62L111.781 24.31C111.948 24.0091 112.198 23.763 112.502 23.6014C112.806 23.4399 113.15 23.3699 113.493 23.4C113.73 23.3721 113.971 23.3917 114.201 23.4578C114.431 23.524 114.646 23.6352 114.832 23.7851C115.018 23.9351 115.173 24.1206 115.287 24.3309C115.401 24.5412 115.471 24.7721 115.495 25.01V25.13C114.893 24.814 114.223 24.6493 113.543 24.65C111.761 24.65 109.939 25.65 109.939 27.47C109.956 27.857 110.051 28.2365 110.219 28.5859C110.386 28.9353 110.622 29.2475 110.913 29.5037C111.203 29.7604 111.542 29.9561 111.91 30.0791C112.277 30.2022 112.666 30.2501 113.052 30.22C113.522 30.2463 113.99 30.1471 114.409 29.9327C114.828 29.7183 115.182 29.3964 115.435 29H115.495V30H117.296V25.19C117.296 23 115.635 21.73 113.503 21.73L113.463 21.71ZM113.232 28.56C112.622 28.56 111.771 28.25 111.771 27.5C111.771 26.5 112.832 26.16 113.773 26.16C114.368 26.1455 114.955 26.2905 115.475 26.58C115.412 27.1231 115.154 27.625 114.749 27.9928C114.344 28.3605 113.82 28.5691 113.272 28.58L113.232 28.56V28.56ZM123.863 22L121.721 27.42H121.661L119.439 22H117.437L120.77 29.58L118.868 33.79H120.87L125.945 22H123.863V22ZM107.046 30H108.908V17.5H107.046V30Z" fill="white"/>
<path d="M10.4504 7.54009C10.1313 7.93415 9.97389 8.43453 10.01 8.94009V31.0601C9.97589 31.5705 10.145 32.0736 10.4804 32.4601L10.5505 32.5401L22.9229 20.1501V19.8501L10.5205 7.47009L10.4504 7.54009Z" fill="url(#paint0_linear)"/>
<path d="M27.0274 24.2799L22.9233 20.1499V19.8499L27.0274 15.7199L27.1175 15.7799L32.0315 18.5599C33.4329 19.3499 33.4329 20.6499 32.0315 21.4499L27.1376 24.2299L27.0274 24.2799Z" fill="url(#paint1_linear)"/>
<path d="M27.1469 24.22L22.9227 20L10.4502 32.46C10.7331 32.7115 11.0951 32.8562 11.4736 32.869C11.852 32.8818 12.223 32.7619 12.5223 32.53L27.146 24.22" fill="url(#paint2_linear)"/>
<path d="M27.1473 15.7799L12.5218 7.47991C12.2245 7.24482 11.8538 7.12197 11.4748 7.13294C11.0958 7.14391 10.7329 7.28802 10.4497 7.53991L22.9231 19.9999L27.1473 15.7799Z" fill="url(#paint3_linear)"/>
<path opacity="0.2" d="M27.0268 24.13L12.5214 32.38C12.233 32.5974 11.8816 32.715 11.5204 32.715C11.1591 32.715 10.8077 32.5974 10.5194 32.38L10.4502 32.45L10.5203 32.53C10.8086 32.7474 11.16 32.865 11.5213 32.865C11.8825 32.865 12.2339 32.7474 12.5223 32.53L27.146 24.22L27.0268 24.13V24.13Z" fill="black"/>
<path opacity="0.12" d="M10.4501 32.32C10.1286 31.9234 9.97099 31.4189 10.0096 30.91V31.06C9.97549 31.5704 10.1446 32.0736 10.4801 32.46L10.5502 32.39L10.4501 32.32ZM32.0317 21.3L27.0267 24.13L27.1177 24.22L32.0317 21.44C32.3218 21.3174 32.5735 21.119 32.7602 20.8656C32.9469 20.6122 33.0618 20.3132 33.0927 20C33.0302 20.2846 32.9015 20.5505 32.7172 20.7763C32.5329 21.0021 32.2981 21.1815 32.0317 21.3V21.3Z" fill="black"/>
<path opacity="0.25" d="M12.5233 7.61986L32.0328 18.6999C32.2991 18.8184 32.5339 18.9979 32.7182 19.2237C32.9025 19.4494 33.0312 19.7153 33.0938 19.9999C33.0629 19.6867 32.948 19.3877 32.7613 19.1343C32.5746 18.8808 32.3229 18.6824 32.0328 18.5599L12.5233 7.47986C11.1319 6.67986 10.0107 7.33986 10.0107 8.93986V9.09077C10.0107 7.49077 11.1319 6.83077 12.5233 7.62077V7.61986Z" fill="white"/>
<path d="M42.1512 14.27H41.4214V12.27H42.042C42.3212 11.9672 42.5312 11.6073 42.6574 11.2154C42.7836 10.8234 42.8229 10.4087 42.7727 10V7.00003H46.7767V12.26H47.4474V14.26H46.7067V13H42.1512V14.27V14.27ZM43.5435 10C43.5882 10.8033 43.3893 11.6014 42.9729 12.29H45.9759V7.74003H43.5435V10ZM53.4634 12.22C53.1743 12.509 52.8309 12.7382 52.4531 12.8946C52.0752 13.051 51.6702 13.1315 51.2612 13.1315C50.8522 13.1315 50.4472 13.051 50.0694 12.8946C49.6915 12.7382 49.3482 12.509 49.059 12.22C48.7716 11.9272 48.5456 11.58 48.3944 11.1988C48.2431 10.8176 48.1696 10.41 48.1781 10C48.1682 9.59073 48.2401 9.18357 48.3897 8.80237C48.5392 8.42118 48.7634 8.07362 49.049 7.78003C49.3381 7.49086 49.6813 7.26146 50.0592 7.10494C50.4371 6.94842 50.8421 6.86786 51.2512 6.86786C51.6603 6.86786 52.0653 6.94842 52.4432 7.10494C52.8211 7.26146 53.1644 7.49086 53.4534 7.78003C53.7444 8.0712 53.974 8.41766 54.1288 8.79895C54.2835 9.18024 54.3602 9.58864 54.3543 10C54.3663 10.4113 54.2934 10.8207 54.1401 11.2027C53.9869 11.5846 53.7565 11.9309 53.4634 12.22ZM49.6296 11.72C49.8405 11.9389 50.0942 12.1121 50.3748 12.2291C50.6555 12.3461 50.9572 12.4042 51.2612 12.4C51.5655 12.4061 51.8678 12.3487 52.1487 12.2316C52.4296 12.1146 52.683 11.9403 52.8929 11.72C53.1165 11.4944 53.2914 11.2254 53.4068 10.9295C53.5222 10.6337 53.5755 10.3173 53.5635 10C53.5756 9.68274 53.5223 9.36634 53.407 9.07047C53.2916 8.7746 53.1166 8.50556 52.8929 8.28003C52.683 8.05978 52.4296 7.88558 52.1487 7.76851C51.8678 7.65144 51.5655 7.59406 51.2612 7.60003C50.9572 7.59582 50.6555 7.65399 50.3748 7.77096C50.0942 7.88793 49.8405 8.06119 49.6296 8.28003C49.4092 8.50749 49.237 8.77709 49.1235 9.07266C49.01 9.36823 48.9574 9.68366 48.9689 10C48.9574 10.3164 49.01 10.6318 49.1235 10.9274C49.237 11.223 49.4092 11.4926 49.6296 11.72V11.72ZM58.2382 13.13C57.8249 13.1385 57.4142 13.0632 57.0308 12.9088C56.6473 12.7544 56.2992 12.524 56.0074 12.2315C55.7155 11.939 55.486 11.5905 55.3327 11.207C55.1793 10.8235 55.1053 10.4129 55.1151 10C55.1069 9.58175 55.1863 9.16637 55.3484 8.7806C55.5104 8.39482 55.7515 8.04719 56.056 7.76003C56.3455 7.46737 56.6922 7.23734 57.0745 7.08423C57.4568 6.93112 57.8665 6.85821 58.2782 6.87003C58.6973 6.85819 59.1135 6.94212 59.4952 7.11542C59.8768 7.28873 60.2138 7.54683 60.4804 7.87003L59.9499 8.39003C59.7533 8.13745 59.4988 7.93569 59.2079 7.80171C58.917 7.66772 58.5982 7.60542 58.2782 7.62003C57.9701 7.61218 57.6637 7.66759 57.3778 7.78284C57.092 7.89808 56.8329 8.07071 56.6166 8.29003C56.3867 8.51079 56.2049 8.77666 56.0828 9.07093C55.9606 9.3652 55.9007 9.68152 55.9068 10C55.8864 10.4746 56.0129 10.9439 56.269 11.344C56.5251 11.7442 56.8985 12.0558 57.3382 12.2364C57.624 12.3528 57.9297 12.4082 58.2391 12.4C58.5881 12.3985 58.9324 12.3196 59.2473 12.1692C59.5622 12.0187 59.8397 11.8005 60.06 11.53L60.6006 12.06C60.3264 12.3883 59.9851 12.6543 59.5996 12.84C59.1737 13.0391 58.7078 13.1382 58.2382 13.13V13.13ZM63.7446 13H62.972V7.74003H61.2913V7.00003H65.4145V7.74003H63.7428V13H63.7446ZM70.7207 7.00003L68.4484 12.06C68.3932 12.2628 68.2945 12.4512 68.1592 12.6121C68.0239 12.7731 67.8552 12.9027 67.6648 12.9921C67.4744 13.0815 67.2669 13.1285 67.0565 13.1299C66.8461 13.1312 66.638 13.0869 66.4464 13L66.6466 12.29C66.7691 12.3588 66.9066 12.3965 67.047 12.4C67.1951 12.4075 67.342 12.369 67.4674 12.29C67.5894 12.1891 67.6822 12.0582 67.7377 11.91L67.9579 11.43L65.9359 7.00003H66.8468L68.3283 10.44L69.8098 7.00003H70.7207ZM71.5916 13V7.00003H75.9359V13H75.1651V7.74003H72.3623V13H71.5916V13ZM77.3073 13V7.00003H78.078V9.57003H81.081V7.00003H81.8618V13H81.081V10.29H78.078V13H77.3073ZM88.1481 12.22C87.7856 12.5823 87.3391 12.8495 86.8483 12.9979C86.3575 13.1462 85.8376 13.1711 85.3349 13.0704C84.8321 12.9696 84.3621 12.7463 83.9665 12.4204C83.571 12.0944 83.2622 11.6758 83.0676 11.2019C82.9143 10.8202 82.8412 10.4111 82.8528 10C82.8411 9.58868 82.9142 9.17931 83.0677 8.79739C83.2211 8.41548 83.4515 8.06918 83.7446 7.78003C84.0329 7.49142 84.3753 7.26244 84.7522 7.1062C85.1292 6.94997 85.5333 6.86955 85.9414 6.86955C86.3495 6.86955 86.7536 6.94997 87.1305 7.1062C87.5075 7.26244 87.8499 7.49142 88.1381 7.78003C88.4312 8.06918 88.6617 8.41548 88.8151 8.79739C88.9685 9.17931 89.0416 9.58868 89.0299 10C89.0429 10.4107 88.9714 10.8196 88.8197 11.2015C88.668 11.5834 88.4394 11.93 88.1481 12.22V12.22ZM84.3143 11.72C84.524 11.9404 84.7774 12.1147 85.0584 12.2318C85.3393 12.3489 85.6416 12.4062 85.9459 12.4C86.25 12.4044 86.5517 12.3462 86.8324 12.2293C87.1131 12.1123 87.3667 11.939 87.5775 11.72C87.7979 11.4925 87.97 11.2229 88.0835 10.9274C88.1971 10.6318 88.2497 10.3164 88.2382 10C88.2497 9.68366 88.1971 9.36823 88.0836 9.07266C87.9701 8.77709 87.798 8.50749 87.5775 8.28003C87.3666 8.06119 87.113 7.88793 86.8323 7.77096C86.5517 7.65399 86.25 7.59582 85.9459 7.60003C85.6416 7.59406 85.3394 7.65144 85.0585 7.76851C84.7776 7.88558 84.5241 8.05978 84.3143 8.28003C84.0906 8.50562 83.9157 8.77467 83.8003 9.07053C83.685 9.36639 83.6316 9.68275 83.6436 10C83.6315 10.3173 83.6848 10.6337 83.8002 10.9296C83.9156 11.2255 84.0905 11.4945 84.3143 11.72V11.72ZM92.1821 13V7.00003H94.3543C94.8046 6.99552 95.2403 7.15963 95.5755 7.46003C95.7429 7.60501 95.8762 7.78496 95.9662 7.98715C96.0561 8.18934 96.1005 8.40882 96.0961 8.63003C96.0979 8.89912 96.0214 9.16367 95.8758 9.39003C95.728 9.60492 95.5236 9.77481 95.2852 9.88094C95.5728 9.9764 95.824 10.1573 96.006 10.4C96.1971 10.6419 96.299 10.9419 96.2963 11.25C96.3011 11.4805 96.2551 11.7092 96.1617 11.9201C96.0683 12.1309 95.9297 12.3186 95.7557 12.47C95.4084 12.7933 94.9491 12.9692 94.4744 12.9609L92.1821 13ZM92.9529 9.57003H94.3543C94.4855 9.57774 94.6166 9.55566 94.738 9.50543C94.8594 9.4552 94.9678 9.37813 95.055 9.28003C95.2244 9.11364 95.3215 8.88734 95.3253 8.65003C95.3344 8.41185 95.2525 8.17912 95.0951 8.00003C95.0106 7.90722 94.9067 7.83405 94.7908 7.78568C94.675 7.7373 94.5499 7.71489 94.4244 7.72003H92.9529V9.57003ZM92.9529 12.2609H94.5045C94.6417 12.2665 94.7785 12.2416 94.9049 12.1878C95.0313 12.134 95.1441 12.0528 95.2352 11.95C95.408 11.7656 95.5046 11.5227 95.5055 11.27C95.5009 11.075 95.4395 10.8856 95.3288 10.7249C95.218 10.5643 95.0628 10.4394 94.8821 10.3655C94.753 10.3121 94.6141 10.2864 94.4744 10.29H92.9529V12.26V12.2609Z" fill="white" stroke="white" stroke-width="0.2" stroke-miterlimit="10"/>
<defs>
<linearGradient id="paint0_linear" x1="21.8218" y1="8.71009" x2="5.04177" y2="25.5069" gradientUnits="userSpaceOnUse">
<stop stop-color="#00A0FF"/>
<stop offset="0.01" stop-color="#00A1FF"/>
<stop offset="0.26" stop-color="#00BEFF"/>
<stop offset="0.51" stop-color="#00D2FF"/>
<stop offset="0.76" stop-color="#00DFFF"/>
<stop offset="1" stop-color="#00E3FF"/>
</linearGradient>
<linearGradient id="paint1_linear" x1="33.8643" y1="19.9999" x2="9.65007" y2="19.9999" gradientUnits="userSpaceOnUse">
<stop stop-color="#FFE000"/>
<stop offset="0.41" stop-color="#FFBD00"/>
<stop offset="0.78" stop-color="#FFA500"/>
<stop offset="1" stop-color="#FF9C00"/>
</linearGradient>
<linearGradient id="paint2_linear" x1="24.8546" y1="22.3" x2="2.0946" y2="45.0728" gradientUnits="userSpaceOnUse">
<stop stop-color="#FF3A44"/>
<stop offset="1" stop-color="#C31162"/>
</linearGradient>
<linearGradient id="paint3_linear" x1="7.30747" y1="0.179908" x2="17.4675" y2="10.3501" gradientUnits="userSpaceOnUse">
<stop stop-color="#32A071"/>
<stop offset="0.07" stop-color="#2DA771"/>
<stop offset="0.48" stop-color="#15CF74"/>
<stop offset="0.8" stop-color="#06E775"/>
<stop offset="1" stop-color="#00F076"/>
</linearGradient>
</defs>
</svg>
