<svg class="header-logo" xmlns="http://www.w3.org/2000/svg" viewBox="0 0 199.59901 42.59127"><defs><style>.a{fill:#ffb217;}.b{fill:#a2ddf8;}.b,.c,.d{fill-rule:evenodd;}.c{fill:#029ce4;}.d{fill:#ff4e33;}</style></defs><path class="a" d="M24.711,14.552l-11.28-3.076c-1.291-.342-2.82-.782-2.82-1.856a1.092,1.092,0,0,1,.526-.928A4.07686,4.07686,0,0,1,12.9,8.5H29.92V0H7.838A7.734,7.734,0,0,0,2.1,2.149C.143,4.151,0,6.837,0,8.986c0,2.539.239,5.469,1.816,7.618A6.863,6.863,0,0,0,5.64,19.192L18.593,22.9c1.1.293,2.151.635,2.151,1.709,0,.489-.287,1.074-1.864,1.074H.335v8.5H23.277c2.294,0,4.827-.049,6.739-2.637,1.529-2.051,1.625-4.785,1.625-6.788,0-2.344-.191-5.713-2.294-7.813a10.6,10.6,0,0,0-4.637-2.393Z" transform="translate(0 0.00927)"></path><path class="a" d="M57.572,10.206c-2.677-2-5.688-1.9-8.555-1.9H43.424V0H34.057V34.183h9.368V15.041h2.964a4.881,4.881,0,0,1,3.872,1.514A6.164,6.164,0,0,1,51.694,21V34.183h9.368v-16.9a8.941,8.941,0,0,0-3.489-7.081Z" transform="translate(0 0.00927)"></path><path class="a" d="M89.283,10.444c-2.772-2.491-7.265-2.637-11.28-2.637s-8.508.147-11.28,2.637c-3.155,2.881-3.346,8.009-3.346,10.6s.192,7.716,3.346,10.6c2.772,2.49,7.265,2.637,11.28,2.637s8.508-.147,11.28-2.637c3.155-2.881,3.346-8.009,3.346-10.6S92.438,13.328,89.283,10.444ZM82.114,25.585c-.43.635-1.577,1.758-4.111,1.758-2.868,0-3.967-1.465-4.158-1.758-.382-.537-.908-1.709-.908-4.542,0-3.028.574-4.15.908-4.639.478-.635,1.577-1.66,4.158-1.66s3.68,1.025,4.158,1.66c.478.684.908,1.9.908,4.639A8,8,0,0,1,82.114,25.585Z" transform="translate(0 0.00927)"></path><path class="a" d="M112.009,8.103H100.252a5.75,5.75,0,0,0-3.585.928,4.457,4.457,0,0,0-1.72,4V42.283h9.368v-8.3h6.93c2.629,0,6.453-.244,8.747-3.565,1.959-2.881,2.055-7.911,2.055-10.158,0-2.49-.192-6.788-2.725-9.474-2.342-2.49-5.64-2.686-7.312-2.686Zm-.1,16.945a3.713,3.713,0,0,1-3.489,2h-4.11V16.255a1.422,1.422,0,0,1,.334-.879,1.556,1.556,0,0,1,.765-.342h3.3a3.42,3.42,0,0,1,3.346,2.2,11.115,11.115,0,0,1,.43,3.76,9.181,9.181,0,0,1-.574,4.053Z" transform="translate(0 0.00927)"></path><path class="a" d="M157.979,8.785h-6.723V.736h-9.279v28.6a4.125,4.125,0,0,0,1.089,3.078,5.116,5.116,0,0,0,4.024,1.467h11.03c2.462,0,6.628-.426,8.853-4.167,1.042-1.751,1.657-4.261,1.657-8.427,0-2.557-.095-5.824-1.7-8.427-2.367-3.882-6.3-4.072-8.947-4.072Zm.52,16.665c-.52,1.042-1.373,1.7-3.219,1.7h-1.894a2.5,2.5,0,0,1-1.657-.426,2.7832,2.7832,0,0,1-.474-1.846v-9.56h4.214a3.128,3.128,0,0,1,3.077,1.941,9.56405,9.56405,0,0,1,.615,3.93A9.87085,9.87085,0,0,1,158.499,25.45Z" transform="translate(0 0.00927)"></path><path class="a" d="M190.314,9.389,183.36,25.297,176.779,9.389h-9.468l11.93,25.093-3.929,8.1h9.279L199.599,9.394Z" transform="translate(0 0.00927)"></path><path class="b" d="M124.253,24.344l-7.325,4.9a.575.575,0,0,0-.294.327.833.833,0,0,0-.065.392c.066.163.1.327.2.36l7.161,8.466a.69992.69992,0,0,0,.392.229l9.417,2.386a.66887.66887,0,0,0,.36,0,.56792.56792,0,0,0,.36-.2l6.964-6.472a.685.685,0,0,0,.229-.359l2.321-11.18v-.425a.86615.86615,0,0,0-.327-.36.449.449,0,0,0-.425-.131l-7,.2a65.72927,65.72927,0,0,0-11.967,1.863Z" transform="translate(0 0.00927)"></path><path class="c" d="M134.03,41.439a.69.69,0,0,0,.425-.229l6.964-6.472a.68485.68485,0,0,0,.229-.359l2.321-11.18c0-.163-.032-.425-.032-.556-4.087,3.661-9.679,8.662-11.15,10,.393,2.713.785,5.655,1.243,8.793Z" transform="translate(0 0.00927)"></path><path class="d" d="M126.29394,27.551l-4.152,2.975.065.163,4.92794,9.12,2.583.556L128.321,31.572l3.27-3.171,4.839.98.91869,9.125,1.6-1.537.32331-10.268-5.1-.621,3.64988-3.64873-2.13788.08139L138.26,17.091l-3.788.944-2.881-2.484-1.962,7.486-3.3-9.48-2.387,3.4-4.022.589,5.493,7.878-2.46588-.234-2.24342,1.532Z" transform="translate(0 0.00927)"></path></svg>