<svg xmlns="http://www.w3.org/2000/svg" width="24" height="24" viewBox="0 0 24 24">
  <defs>
    <style>
      .cls-1 {
        fill: #FF4E33;
        fill-rule: evenodd;
      }
    </style>
  </defs>
  <path id="_" data-name="%" class="cls-1" d="M1260.48,1125.49l-3.26-.66-0.64,3.26-2.75-1.85-1.84,2.76-1.84-2.76-2.75,1.85-0.64-3.26-3.26.66,0.66-3.26-3.26-.64,1.85-2.75-2.76-1.84,2.76-1.84-1.85-2.75,3.26-.64-0.66-3.26,3.26,0.66,0.64-3.26,2.75,1.85,1.84-2.76,1.84,2.76,2.75-1.85,0.64,3.26,3.26-.66-0.66,3.26,3.26,0.64-1.86,2.75,2.77,1.84-2.77,1.84,1.86,2.75-3.26.64Zm-3.37-7.73a2.489,2.489,0,1,0-1.76,4.24,2.492,2.492,0,0,0,2.48-2.48A2.415,2.415,0,0,0,1257.11,1117.76Zm-2.61-5.56-6.19,9.8h1.5l6.19-9.8h-1.5Zm-3.76.72a2.487,2.487,0,1,0,.72,1.76A2.4,2.4,0,0,0,1250.74,1112.92Z" transform="translate(-1240 -1105)"/>
</svg>
