<?xml version="1.0" encoding="UTF-8"?>
<!-- Generator: Adobe Illustrator 15.0.2, SVG Export Plug-In . SVG Version: 6.00 Build 0)  -->
<!DOCTYPE svg PUBLIC "-//W3C//DTD SVG 1.1//EN" "http://www.w3.org/Graphics/SVG/1.1/DTD/svg11.dtd">
<svg version="1.1" id="Layer_1" xmlns="http://www.w3.org/2000/svg" xmlns:xlink="http://www.w3.org/1999/xlink" x="0px" y="0px" width="30px" height="30px" viewBox="0 0.021 30 30" enable-background="new 0 0.021 30 30" xml:space="preserve">
<g>
	<path fill="#40B6FF" d="M30,28.164c0,1.035-0.841,1.878-1.875,1.878H1.875C0.84,30.042,0,29.199,0,28.164V1.877   C0,0.841,0.84,0,1.875,0h26.25C29.159,0,30,0.841,30,1.877V28.164z"/>
	<path fill="#FFFFFF" d="M24.677,9.29c-0.688,0.301-1.425,0.504-2.202,0.595c0.795-0.467,1.401-1.21,1.688-2.095   c-0.739,0.433-1.561,0.749-2.434,0.917C21.03,7.972,20.034,7.51,18.933,7.51c-2.117,0-3.829,1.696-3.829,3.791   c0,0.295,0.033,0.587,0.097,0.866c-3.182-0.162-6.006-1.669-7.896-3.963c-0.33,0.561-0.52,1.211-0.52,1.908   c0,1.313,0.679,2.474,1.704,3.154c-0.627-0.021-1.219-0.191-1.734-0.476c-0.001,0.017-0.001,0.032-0.001,0.05   c0,1.834,1.321,3.368,3.074,3.716c-0.32,0.085-0.659,0.134-1.01,0.134c-0.246,0-0.485-0.022-0.719-0.068   c0.485,1.506,1.899,2.604,3.576,2.634c-1.306,1.016-2.959,1.623-4.755,1.623c-0.309,0-0.615-0.017-0.915-0.054   c1.695,1.076,3.71,1.702,5.874,1.702c7.043,0,10.897-5.777,10.897-10.788c0-0.162-0.005-0.328-0.012-0.49   C23.514,10.716,24.164,10.048,24.677,9.29z"/>
</g>
</svg>